<svg version="1.1" id="Layer_1" xmlns="http://www.w3.org/2000/svg" xmlns:xlink="http://www.w3.org/1999/xlink" x="0px" y="0px"
	 width="100%" viewBox="0 0 1000 563" enable-background="new 0 0 1000 563" xml:space="preserve">
<path fill="#ffffff" opacity="1.000000" stroke="none" 
	d="
M807.264343,372.256470 
	C797.683899,386.520508 785.103638,397.961212 772.107056,408.897888 
	C728.006958,446.008331 677.427551,471.188232 622.955505,489.006256 
	C573.320862,505.241974 522.303772,514.342529 470.284454,518.224976 
	C434.512390,520.894836 398.723419,522.061157 362.950439,518.788452 
	C308.922424,513.845520 257.160156,500.157410 207.833099,477.476440 
	C171.482605,460.762146 137.526978,440.205322 106.978294,414.232025 
	C104.721329,412.313141 102.592430,410.243591 99.884308,407.769226 
	C103.469666,405.432037 106.552277,403.290100 109.758415,401.352478 
	C155.784378,373.537415 205.550385,356.864532 258.988586,350.807251 
	C292.842987,346.969849 326.506439,349.610260 360.226379,352.485168 
	C424.413605,357.957581 487.245056,371.678223 550.415405,383.360504 
	C604.156799,393.299072 658.217651,395.593781 712.624084,390.260925 
	C740.170166,387.560913 767.534729,383.927887 794.167664,376.083008 
	C798.143127,374.912018 801.952515,373.177124 806.360596,371.786407 
	C807.009766,371.998627 807.137085,372.127533 807.264343,372.256470 
z"/>
<path fill="#ffffff" opacity="1.000000" stroke="none" 
	d="
M211.934021,153.935013 
	C163.901596,190.388397 124.973221,233.937973 100.498001,289.269012 
	C86.852776,320.116699 79.112854,352.244965 81.460915,386.966064 
	C80.374794,385.926941 79.548500,385.311432 78.938583,384.527588 
	C54.424706,353.023041 39.378048,317.883514 39.166618,277.464478 
	C38.974621,240.759872 52.761433,208.971909 75.296333,180.660461 
	C100.063721,149.544235 131.475006,126.357094 165.412384,106.377556 
	C217.754532,75.562805 274.451996,56.356617 333.678772,44.065826 
	C401.916840,29.905008 470.973511,25.636787 540.429016,28.482729 
	C569.668213,29.680805 598.801819,33.459236 627.982544,36.074150 
	C628.614380,36.130772 629.236023,36.301960 629.862488,36.419708 
	C629.852722,36.985321 629.842957,37.550938 629.833252,38.116550 
	C615.568970,38.116550 601.277405,37.538998 587.044861,38.211441 
	C502.437683,42.208858 419.512177,55.321098 339.797241,85.132446 
	C294.169098,102.196198 251.262238,124.379715 211.934021,153.935013 
z"/>
<path fill="#ffffff" opacity="1.000000" stroke="none" 
	d="
M837.544250,106.518021 
	C859.910278,116.963722 879.843750,131.068634 898.219177,147.391647 
	C922.713440,169.150192 942.886536,194.245178 953.913025,225.472534 
	C973.515259,280.986938 963.050781,331.719818 927.658691,377.812042 
	C906.463562,405.415070 879.456421,426.489563 849.929993,444.436035 
	C800.005432,474.780701 745.999512,495.201202 689.619385,509.743225 
	C688.680664,509.985413 687.671753,509.955414 687.912781,509.931458 
	C704.410583,499.609039 722.179993,489.378998 739.011414,477.786957 
	C782.686279,447.707367 821.525635,412.446259 851.694458,368.409393 
	C871.702881,339.203461 885.984070,307.553802 890.977356,272.197693 
	C896.411865,233.717606 889.234619,197.316055 872.499939,162.548889 
	C862.988159,142.787537 850.855042,124.715965 837.192993,107.229553 
	C837.273376,106.776321 837.544250,106.518021 837.544250,106.518021 
z"/>
<path fill="#ffffff" opacity="1.000000" stroke="none" 
	d="
M255.306213,255.362762 
	C267.945740,239.018585 285.179718,235.211929 304.125061,236.488007 
	C309.691223,236.862930 315.373932,238.168961 320.624329,240.086014 
	C338.469116,246.601593 348.744354,261.602081 348.448578,279.808044 
	C348.151428,298.097748 337.466766,312.572815 319.379578,318.621307 
	C305.368225,323.306854 291.160126,323.359924 277.174896,318.590210 
	C250.023926,309.330261 239.820435,279.982483 255.306213,255.362762 
M304.241730,257.839661 
	C292.293823,254.738525 282.854492,259.651794 280.529938,271.027893 
	C279.493042,276.102509 279.471313,281.726288 280.476654,286.806396 
	C282.676239,297.921021 292.774963,303.385559 303.725739,300.207672 
	C311.266418,298.019379 315.581390,291.871552 316.586761,281.883881 
	C317.713531,270.689392 313.705292,262.435547 304.241730,257.839661 
z"/>
<path fill="#ffffff" opacity="1.000000" stroke="none" 
	d="
M416.456665,319.491119 
	C416.054077,306.510590 416.044647,293.853119 415.918945,281.196838 
	C415.889313,278.216309 415.706970,275.196503 415.179138,272.269745 
	C413.867249,264.995453 410.805664,261.560791 405.300568,260.706329 
	C397.944550,259.564575 391.085724,262.299469 388.730682,268.859802 
	C386.698944,274.519470 385.807495,280.787476 385.536804,286.836853 
	C385.047852,297.763214 385.398407,308.727173 385.398407,319.904175 
	C375.178894,319.904175 365.408295,319.904175 354.946259,319.904175 
	C354.946259,306.336578 354.946228,292.750092 354.946228,279.163605 
	C354.946228,265.676422 354.946259,252.189224 354.946259,238.720490 
	C373.356812,236.464310 380.185516,238.217712 383.334381,250.735107 
	C392.801575,238.067505 405.724152,234.622391 420.577393,236.765244 
	C435.161072,238.869171 445.420441,249.181412 445.972076,263.885834 
	C446.664337,282.338287 446.138763,300.836456 446.138763,319.814636 
	C436.354980,319.814636 426.581146,319.814636 416.456665,319.491119 
z"/>
<path fill="#ffffff" opacity="1.000000" stroke="none" 
	d="
M758.974609,275.903290 
	C772.236389,267.418732 786.694580,267.397308 801.279968,268.103516 
	C802.609436,268.167877 803.932007,268.368103 805.259888,268.480591 
	C805.393921,268.491974 805.542542,268.331696 805.684387,268.251099 
	C806.203125,262.556274 803.096619,257.877136 796.447266,257.229309 
	C788.760864,256.480438 780.895996,257.012665 773.154724,257.598175 
	C768.909790,257.919220 764.759888,259.496063 759.634644,260.731445 
	C759.634644,254.606323 759.515869,248.690567 759.751160,242.788910 
	C759.790527,241.801163 761.222900,240.249161 762.252991,240.013626 
	C777.775085,236.464584 793.422852,234.244370 809.222717,238.030609 
	C826.185303,242.095490 834.879089,253.163864 835.002319,270.663849 
	C835.116943,286.934204 835.026855,303.206055 835.026855,319.706421 
	C827.251953,319.706421 818.299438,319.706421 808.771057,319.706421 
	C808.523376,316.372406 808.271240,312.979126 807.953125,308.698059 
	C802.944336,314.849182 797.606995,319.376587 790.354797,320.982849 
	C781.986084,322.836456 773.777649,322.206879 765.822266,319.123138 
	C746.802185,311.750397 743.117188,289.389435 758.974609,275.903290 
M787.277100,284.362396 
	C785.276123,285.145905 783.075073,285.621796 781.310852,286.769348 
	C775.537476,290.524811 776.060486,297.957123 782.338196,300.705811 
	C787.932007,303.155060 793.474670,302.520660 798.429321,298.913208 
	C803.355103,295.326752 805.855713,290.406860 806.046814,284.193756 
	C799.751038,284.193756 793.941040,284.193756 787.277100,284.362396 
z"/>
<path fill="#ffffff" opacity="1.000000" stroke="none" 
	d="
M528.470154,306.512970 
	C516.705627,292.194977 515.320740,276.494202 522.175903,260.317108 
	C529.118530,243.933655 543.260132,237.493973 560.112915,236.375534 
	C565.534180,236.015747 571.177551,236.341171 576.486816,237.457993 
	C592.092468,240.740753 602.194031,250.404755 605.978821,265.883270 
	C607.689148,272.877808 607.962769,280.223663 608.964905,288.005493 
	C588.635681,288.005493 569.416016,288.005493 550.150146,288.005493 
	C550.919189,294.887421 554.629578,299.110016 561.870422,300.875916 
	C573.408875,303.689880 584.668823,302.318573 595.597229,297.835144 
	C596.819153,297.333832 598.011292,296.760040 599.226990,296.242798 
	C599.355591,296.188080 599.550354,296.289124 599.953613,296.359924 
	C599.953613,302.899841 599.953613,309.488190 599.953613,316.643951 
	C587.009460,321.325073 573.509277,322.999847 559.624512,321.394806 
	C547.705627,320.016998 537.088501,315.721313 528.470154,306.512970 
M549.916016,265.694580 
	C549.553955,267.265442 549.191895,268.836304 548.814087,270.475220 
	C559.485657,270.475220 569.671265,270.475220 579.854919,270.475220 
	C579.699402,262.401428 576.777527,257.908417 570.610229,255.906509 
	C561.668335,253.003937 554.500427,256.160217 549.916016,265.694580 
z"/>
<path fill="#ffffff" opacity="1.000000" stroke="none" 
	d="
M254.848053,214.124298 
	C257.472687,214.124313 259.618896,214.124313 261.721680,214.124313 
	C264.048431,229.291550 256.527008,235.848724 245.758743,235.405838 
	C234.472549,234.941635 223.152451,235.302048 211.506836,235.302048 
	C211.506836,242.693481 211.506836,249.731812 211.506836,257.264038 
	C222.709595,257.264038 233.797134,257.264038 246.025574,257.264038 
	C244.614944,262.249359 243.786499,266.642212 242.121262,270.690857 
	C240.045288,275.738220 235.948502,278.327606 230.304184,278.258972 
	C224.161758,278.184265 218.017715,278.242004 211.292130,278.242004 
	C211.292130,292.447235 211.292130,306.329926 211.292130,320.456360 
	C200.623795,320.456360 190.541534,320.456360 180.161591,320.456360 
	C180.078140,318.831604 179.939545,317.382904 179.938828,315.934174 
	C179.925735,289.769867 179.917374,263.605560 179.934006,237.441254 
	C179.943115,223.125305 188.943161,214.164566 203.374359,214.134033 
	C220.372711,214.098053 237.371185,214.124756 254.848053,214.124298 
z"/>
<path fill="#ffffff" opacity="1.000000" stroke="none" 
	d="
M490.647400,322.284607 
	C488.878265,322.167755 487.545227,322.102539 486.219849,321.964447 
	C470.220093,320.297211 462.259399,311.888306 461.889313,295.823029 
	C461.628448,284.497711 461.758209,273.163422 461.700592,261.833221 
	C461.699890,261.694092 461.527130,261.555817 461.094269,260.906494 
	C458.552429,260.906494 455.639465,260.906494 452.424072,260.906494 
	C452.424072,253.654388 452.424072,246.901657 452.424072,239.658752 
	C455.430786,239.658752 458.526306,239.658752 462.180298,239.658752 
	C462.180298,235.226883 462.086121,231.268799 462.199585,227.316666 
	C462.448883,218.633453 466.926392,214.184326 475.635529,213.987274 
	C480.465973,213.877975 485.300903,213.961914 490.133759,213.975540 
	C490.612183,213.976883 491.090271,214.095779 492.112823,214.233368 
	C492.112823,222.600525 492.112823,230.982346 492.112823,239.730713 
	C499.098083,239.730713 505.545288,239.730713 512.342773,239.730713 
	C512.342773,246.642258 512.342773,253.179825 512.342773,260.097748 
	C505.732513,260.097748 499.286133,260.097748 492.920258,260.097748 
	C492.920258,272.211670 492.631317,283.958649 493.057983,295.679565 
	C493.236450,300.581970 497.250488,302.676270 501.891174,302.724854 
	C505.501312,302.762665 509.116791,302.288147 513.132812,302.013794 
	C513.497437,308.339050 513.847717,314.414978 514.250122,321.394775 
	C506.252380,321.708130 498.669708,322.005249 490.647400,322.284607 
z"/>
<path fill="#ffffff" opacity="1.000000" stroke="none" 
	d="
M701.667786,237.816010 
	C709.677734,238.411560 714.450317,242.153656 715.789307,251.174072 
	C723.945862,236.871826 736.397888,236.554169 749.775330,238.160477 
	C749.775330,245.775635 749.775330,253.206635 749.775330,260.952148 
	C745.822693,261.287537 741.897949,261.583984 737.980835,261.959717 
	C726.350952,263.075348 719.533020,269.466034 718.858948,281.092346 
	C718.223938,292.045105 718.515015,303.051636 718.405212,314.034607 
	C718.387268,315.828918 718.402649,317.623566 718.402649,319.670807 
	C708.206848,319.670807 698.444824,319.670807 688.311340,319.670807 
	C688.311340,292.544281 688.311340,265.376007 688.311340,237.792709 
	C692.646179,237.792709 696.928467,237.792709 701.667786,237.816010 
z"/>
<path fill="#ffffff" opacity="1.000000" stroke="none" 
	d="
M616.617004,287.999756 
	C616.617004,271.192047 616.617004,254.884369 616.617004,238.616745 
	C631.112122,234.429932 641.674683,238.771851 644.941833,250.774673 
	C652.515564,237.363861 664.593323,236.461212 677.944458,238.122925 
	C677.944458,245.620758 677.944458,253.157043 677.944458,260.957001 
	C674.632568,261.258728 671.358765,261.581268 668.080505,261.851471 
	C654.180725,262.997192 647.381958,270.062469 647.124146,284.081055 
	C646.925232,294.895477 647.070496,305.716187 647.050354,316.534088 
	C647.048523,317.500397 646.954712,318.466492 646.891296,319.665375 
	C636.897644,319.665375 627.151428,319.665375 616.617004,319.665375 
	C616.617004,309.284088 616.617004,298.891937 616.617004,287.999756 
z"/>
<path fill="#ffffff" opacity="1.000000" stroke="none" 
	d="
M867.008545,214.764893 
	C866.980591,213.858627 866.951355,213.360764 866.922119,212.862900 
	C866.686829,212.761002 866.451477,212.659088 866.216125,212.557190 
	C864.338318,217.155685 862.453796,221.751465 860.585083,226.353653 
	C859.334106,229.434479 858.209167,232.572510 856.810425,235.583969 
	C856.326782,236.625137 855.187805,237.361908 854.348206,238.237732 
	C853.534912,237.318115 852.426392,236.528244 851.956116,235.457901 
	C848.834900,228.354248 845.850403,221.190506 841.595825,214.141693 
	C841.595825,218.277359 841.810181,222.427414 841.534058,226.544571 
	C841.271057,230.465912 842.723328,234.724777 840.646912,238.371979 
	C840.140381,238.323303 839.633850,238.274628 839.127319,238.225967 
	C839.127319,228.085251 839.127319,217.944550 839.127319,207.719727 
	C841.949463,206.578293 843.573792,207.573837 844.715576,210.493240 
	C847.675110,218.059982 850.878174,225.531494 854.394348,234.033218 
	C856.840759,228.315094 858.556824,223.339493 861.042053,218.783478 
	C863.252502,214.731232 862.833191,208.391739 870.004639,206.740372 
	C870.004639,217.096237 870.043823,226.393692 869.938904,235.689514 
	C869.929321,236.541656 868.998657,237.383377 868.495667,238.229919 
	C867.998779,237.375839 867.085938,236.528946 867.071045,235.666565 
	C866.953369,228.837143 867.006531,222.004776 867.008545,214.764893 
z"/>
<path fill="#ffffff" opacity="1.000000" stroke="none" 
	d="
M825.229126,235.146393 
	C824.781433,236.450150 824.333618,237.345642 823.885742,238.241135 
	C823.323242,237.264053 822.288452,236.294586 822.272522,235.308685 
	C822.141052,227.151199 822.198181,218.990677 822.198181,210.432236 
	C819.076782,210.206406 816.108398,209.991653 812.608215,209.738419 
	C815.943665,206.387665 831.801514,206.436264 834.752319,209.809906 
	C831.413391,209.809906 828.577332,209.809906 825.228943,209.809906 
	C825.228943,218.534760 825.228943,226.636444 825.229126,235.146393 
z"/>
<path fill="#ffffff" opacity="1.000000" stroke="none" 
	d="
M837.128723,106.895073 
	C836.797119,106.766228 836.610107,106.518631 836.423157,106.271034 
	C836.671936,106.239906 836.920715,106.208771 837.356873,106.347832 
	C837.544250,106.518021 837.273376,106.776321 837.128723,106.895073 
z"/>
<path fill="#ffffff" opacity="1.000000" stroke="none" 
	d="
M806.701294,371.667114 
	C806.905029,371.345917 807.289856,371.227264 807.674744,371.108582 
	C807.695740,371.380402 807.716675,371.652222 807.500977,372.090271 
	C807.137085,372.127533 807.009766,371.998627 806.701294,371.667114 
z"/>

</svg>