<svg version="1.1" id="Layer_1" xmlns="http://www.w3.org/2000/svg" xmlns:xlink="http://www.w3.org/1999/xlink" x="0px" y="0px"
	 width="100%" viewBox="0 0 380 81" enable-background="new 0 0 380 81" xml:space="preserve">
<path fill="#ffffff" opacity="1.000000" stroke="none" 
	d="
M320.690369,73.495316 
	C305.649841,64.426567 299.318207,48.600452 304.074158,32.558220 
	C308.513611,17.583414 322.719696,7.587445 338.980072,7.997019 
	C354.314911,8.383281 367.710022,19.514456 371.470734,34.996471 
	C375.378845,51.085075 366.646454,68.501175 351.462280,74.902069 
	C344.022705,78.038223 340.449890,75.279022 341.370117,66.996742 
	C346.343842,65.995270 351.441071,65.302048 356.335938,63.901585 
	C362.905060,62.022095 363.737244,60.185860 361.740845,53.814404 
	C359.753113,47.470562 357.406799,41.230644 355.641663,34.828274 
	C354.339569,30.105581 351.220062,28.058943 346.817444,27.238926 
	C346.165405,27.117485 345.493591,27.099415 344.830231,27.042078 
	C323.569916,25.204441 322.015442,26.236290 315.581177,46.456177 
	C314.724609,49.148037 313.826752,51.827694 313.023254,54.535324 
	C311.384064,60.058849 311.921967,61.730640 317.450470,63.490906 
	C322.625427,65.138603 328.081238,65.904259 334.599396,67.314713 
	C333.667725,69.894463 333.452179,73.301399 331.640503,74.903839 
	C328.210388,77.937798 324.466309,75.236946 320.690369,73.495316 
z"/>
<path fill="#ffffff" opacity="1.000000" stroke="none" 
	d="
M9.214954,29.000156 
	C9.240970,22.172981 9.262259,15.845730 9.307155,9.518646 
	C9.309297,9.216825 9.520243,8.916483 9.751018,8.305526 
	C12.211032,8.305526 14.787768,8.305526 17.846836,8.305526 
	C17.846836,17.663294 17.846836,27.062828 17.846836,36.593655 
	C21.462021,35.544437 24.546022,34.226780 27.749516,33.794369 
	C40.196178,32.114315 50.839169,40.899754 51.865242,53.426105 
	C52.808075,64.936234 43.603642,75.457321 32.044987,76.081558 
	C19.360762,76.766571 9.384258,67.597107 9.234297,54.980473 
	C9.133356,46.488140 9.214939,37.993645 9.214954,29.000156 
M22.071762,45.526466 
	C16.518171,52.269993 16.677355,59.404629 22.491903,64.357185 
	C27.819838,68.895271 35.605495,68.135086 40.203892,62.627808 
	C44.054398,58.016251 43.989349,51.299004 40.049232,46.655773 
	C35.720669,41.554775 29.363859,40.968685 22.071762,45.526466 
z"/>
<path fill="#ffffff" opacity="1.000000" stroke="none" 
	d="
M98.364655,42.805347 
	C103.925690,52.957081 103.006691,62.575020 96.045746,69.700439 
	C89.551003,76.348648 79.556465,78.069229 71.267883,73.966003 
	C63.593800,70.166985 58.703987,61.833237 59.378613,53.703003 
	C60.142483,44.497234 65.868828,37.101254 74.290718,34.442959 
	C83.082321,31.667973 91.603416,34.550583 98.364655,42.805347 
M90.091881,46.509785 
	C84.348259,41.486038 79.385406,40.818821 73.902191,44.333225 
	C69.265411,47.305126 67.033348,53.089466 68.675476,58.154469 
	C70.223686,62.929768 73.352989,66.159645 78.400803,67.033340 
	C83.580482,67.929863 87.997742,66.329262 90.981773,61.911217 
	C94.316589,56.973827 93.988075,51.947464 90.091881,46.509785 
z"/>
<path fill="#ffffff" opacity="1.000000" stroke="none" 
	d="
M175.452164,33.629921 
	C184.974350,34.881851 188.049377,37.254677 190.084122,45.108295 
	C186.092590,45.170090 182.298965,47.082920 179.022400,42.593090 
	C176.689102,39.395763 169.648346,39.172962 166.563690,41.638042 
	C165.653000,42.365818 164.538162,44.188614 164.862366,44.844463 
	C165.664185,46.466476 166.995697,48.419697 168.558075,48.962429 
	C173.407867,50.647125 178.538849,51.510418 183.420853,53.117359 
	C189.154968,55.004765 191.560944,58.500736 191.477600,63.758896 
	C191.392792,69.108566 188.493576,72.470406 183.743317,74.295464 
	C176.620026,77.032227 169.356277,76.864777 162.243362,74.369141 
	C157.474792,72.696037 154.799545,69.064125 154.112762,63.531555 
	C158.521301,63.385498 162.628052,61.601902 165.676758,67.007782 
	C167.587326,70.395531 177.392975,70.272827 180.602219,67.656677 
	C183.096176,65.623627 182.712021,62.470821 179.235031,60.988987 
	C175.290726,59.308006 171.056778,58.256451 166.887894,57.163334 
	C158.575211,54.983677 154.836777,51.413296 155.240051,45.748005 
	C155.688873,39.443024 160.867279,34.742130 168.561584,33.812565 
	C170.698868,33.554352 172.878006,33.642815 175.452164,33.629921 
z"/>
<path fill="#ffffff" opacity="1.000000" stroke="none" 
	d="
M113.788834,72.288162 
	C111.950104,69.459145 110.391472,66.878532 108.317848,63.445267 
	C113.704384,63.553795 117.787834,61.472523 120.707703,66.813835 
	C122.660805,70.386642 132.847015,70.361839 135.999527,67.536919 
	C138.329529,65.449043 137.795685,62.265205 134.334335,60.880920 
	C130.197128,59.226345 125.801842,58.186886 121.476006,57.040802 
	C113.886673,55.030098 110.398392,51.587292 110.570221,46.050446 
	C110.756577,40.045414 115.497101,34.587147 122.525642,34.139225 
	C127.990562,33.790955 133.685974,34.725208 139.057419,36.013268 
	C143.054092,36.971664 144.662308,40.712101 145.263260,45.131218 
	C141.067413,45.286167 137.270905,46.878059 134.204361,42.601505 
	C133.165176,41.152271 130.473557,40.440151 128.453934,40.243069 
	C125.139229,39.919609 121.055847,40.002022 120.195000,43.993099 
	C119.222427,48.502171 123.487114,49.073437 126.609566,49.973839 
	C130.753983,51.168941 135.041214,51.911518 139.116165,53.293503 
	C143.713364,54.852600 146.715881,57.999729 146.781357,63.227036 
	C146.847519,68.511055 144.298218,72.250717 139.496506,74.047363 
	C130.871002,77.274780 122.288353,77.336922 113.788834,72.288162 
z"/>
<path fill="#ffffff" opacity="1.000000" stroke="none" 
	d="
M254.221100,63.998425 
	C254.217773,60.510025 254.336029,57.507927 254.186142,54.519279 
	C253.853409,47.885159 248.694839,42.635513 242.107208,42.061798 
	C235.603271,41.495373 229.204102,45.813683 228.138504,52.302124 
	C227.310562,57.343380 227.500626,62.556900 227.316162,67.696648 
	C227.222153,70.316231 227.299713,72.941971 227.299713,75.831718 
	C224.382355,75.831718 221.965942,75.831718 219.353790,75.831718 
	C219.353790,67.532257 218.400101,59.149811 219.579575,51.079109 
	C221.304886,39.273357 231.863846,32.527470 244.271774,33.839252 
	C254.773376,34.949497 262.912354,44.375755 262.996643,55.601032 
	C263.046417,62.229828 263.005737,68.859299 263.005737,75.800209 
	C260.073822,75.800209 257.494995,75.800209 254.221008,75.800209 
	C254.221008,72.029350 254.221008,68.260094 254.221100,63.998425 
z"/>
<path fill="#ffffff" opacity="1.000000" stroke="none" 
	d="
M209.533630,76.505943 
	C206.388214,76.844673 203.568176,76.844673 200.376373,76.844673 
	C200.376373,62.438248 200.376373,48.057869 200.376373,33.339447 
	C203.334396,33.339447 206.384674,33.339447 209.859009,33.339447 
	C209.859009,47.649437 209.859009,61.908325 209.533630,76.505943 
z"/>
<path fill="#ffffff" opacity="1.000000" stroke="none" 
	d="
M272.004364,45.015549 
	C272.004364,40.885921 272.004364,37.252853 272.004364,33.314034 
	C275.383575,33.314034 278.432312,33.314034 281.741364,33.314034 
	C281.741364,47.690456 281.741364,61.942822 281.741364,76.595947 
	C278.793732,76.595947 275.747467,76.595947 272.004364,76.595947 
	C272.004364,66.338997 272.004364,55.925556 272.004364,45.015549 
z"/>
<path fill="#ffffff" opacity="1.000000" stroke="none" 
	d="
M327.934570,48.779282 
	C336.237366,44.975136 344.397644,44.845367 352.364014,48.142620 
	C354.628479,49.079868 357.513000,51.825634 357.578430,53.824951 
	C357.641876,55.764961 354.831512,58.696556 352.618134,59.652061 
	C344.682526,63.077885 336.453308,63.098911 328.539856,59.347015 
	C322.765259,56.609165 322.557007,53.110600 327.934570,48.779282 
z"/>
<path fill="#ffffff" opacity="1.000000" stroke="none" 
	d="
M332.113495,31.966061 
	C337.631256,29.026367 343.017822,29.092220 348.245087,31.256552 
	C349.796875,31.899063 351.700134,34.053242 351.675476,35.484295 
	C351.650360,36.940857 349.546387,39.474373 348.180725,39.595352 
	C343.233795,40.033604 338.066467,40.359970 333.272644,39.350170 
	C329.837311,38.626534 328.334229,35.416840 332.113495,31.966061 
z"/>
</svg>