<?xml version="1.0" encoding="utf-8"?>
<svg
  version="1.1"
  viewBox="0 0 600 110"
  fill="none"
  stroke="#ffffff"
  strokeLinecap="round"
  strokeLinejoin="round"
  strokeWidth="6"
  xmlns="http://www.w3.org/2000/svg"
>
  <path d="M53.4,11.1c-1.9-4.7-7-7.8-12.1-8.1s-10.1,1.8-14.1,5-7,7.4-9.7,11.8c-8.4,13.7-13.3,29.4-14.4,45.4-.2,3-.2,6.1.6,8.9s2.6,5.6,5.2,7c3.3,1.7,7.4,1,10.9-.2,10.4-3.7,18.9-12.2,22.7-22.5,2-5.5,2.5-12.3-1.4-16.8-4.1.4-8.2.7-12.3,1.1" />
          <path d="M83.8,5.9c-5,12.4-10,24.7-15,37.1-4.6,11.3-9.2,23.1-8.1,35.3" />
          <path d="M117.8,42.9c-1.9-1.7-2.1-1.9-5-4s-3-1.9-4.3-2.2c-2.5-.6-4.9,1.2-6.8,2.9-7.7,7.3-13.9,16.2-17.9,26-.6,1.6-1.2,3.3-.7,4.9.7,2,3.1,3.2,5.2,3s4.1-1.3,5.9-2.5c5.7-3.9,10.6-8.9,15.5-13.9,2.7-2.7,6-13.2,8-13.2,2,1-5,16-3,21s6.1,6.3,10.6,7.8" />
          <path d="M183.4,9.8c-12.2,19.6-19.3,42.3-20.5,65.4.8-6.8,1.5-13.6,2.3-20.3.4-3.2.6-6.8-1.2-9.4-2.2-3.1-6.7-3.7-10.3-2.4s-7.5,4-10,6.8c-5.4,6-9.2,13.1-9.5,21.2,0,2.3.5,4.9,2.5,5.9,2.3,1,4.8-.7,6.8-2.3,6.7-5.7,15.6-13.9,22.2-19.7" />
          <path d="M215,39.2c1.4.6,2.3,2,2.6,3.5s.2,3,.1,4.5c-.6,7.1-1.1,14.3-1.7,21.4,0,.9,0,2,.8,2.4.8.4,1.8-.3,2.5-.9,8.4-8,16-16.9,22.7-26.4s1-.1.9.4c-4.3,16.8-11.9,32.6-19.5,48.3-2.1,4.4-4.2,8.7-6.4,13.1" />
          <path d="M274.8,38.9c-2.5.4-6.6,1.6-8.3,3.4-6.1,6.4-10.1,14.7-11.5,23.4-.4,2.7-.4,5.8,1.7,7.6,1.3,1.1,3.2,1.3,4.9.9s5.8-1.3,7.2-2.3c3.7-2.7,7.2-6.3,10-10,1.9-2.5,3.1-4.9,3-8,0-2.5-16.4-8.2-14-9s15.5,3.6,17,0" />
          <path d="M311.4,37.9c-4.5,6.7-7.7,14.4-9.4,22.3-.4,2.1-.8,4.4-.4,6.5s1.6,4.3,3.6,5.3c1.8.9,4,.8,5.8,0s3.4-2.1,4.9-3.5c7.3-6.9,12.2-16.4,13.6-26.3" />
          <path d="M407.8,43.9c-1-2-2.7-2.7-5-5s-7.1-2.6-9-2.3c-1.3.2-2.3,1-3.3,1.9-8.6,7.7-15.3,17.5-19.3,28.3-.9,2.3-1.5,5.2.1,7,1.1,1.2,2.9,1.5,4.4,1.1s2.7-1.6,4.3-2.1c12.8-3.9,22.2-25.9,26.8-27.9,3-1.3-2.7,8.8-2.9,12s-.1,6.6,1.2,9.6,6.5,6.4,9.7,6.4" />
          <path d="M451.4,48.2c1.4-1.4,2.9-2.8,3.9-4.5s1.6-3.7,1.2-5.7c-.6-2.7-3.2-4.7-5.9-5.1s-5.6.4-7.9,1.9-4.9,2.1-6.9,4.1c-2.5,2.5-4.4,3.8-6,7s-3.8,8.9-2,12c1.3,2.2,5.2,4.7,7.4,6.1s5,2.9,6.6,4.9,3.4,3.8,2,6c-1.8,2.9-7.4,4-10.7,3.4-3.7-.6-7.3-1.8-10.7-3.3" />
          <path d="M490.5,12c-9.9,20.4-18,41.7-24.3,63.6" />
          <path d="M500.8,37.9c-3.4,7-17.6,9.3-25.3,15.5-3.9,3.2,6,7.3,9.3,11.5,3.4,4.2,6,10,10.5,12.6" />
          <path d="M515.9,52.8c3.6,2.9,9.4,6.1,13.9,5.1s9.1-7.5,10-12-2.8-9.6-7.3-10.3c-6.9-1-12.9,5.9-16.1,12.1s-5.6,13.2-5.6,20.2c0,2.1,1,5.2,2,7,2,3.7,7.6,4,11.6,2.8s7.2-4.2,10.3-7" />
          <path d="M600.2,7c-12.2,19.6-19.3,42.3-20.5,65.4.8-6.8,1.5-13.6,2.3-20.3.4-3.2.6-6.8-1.2-9.4-2.2-3.1-6.7-3.7-10.3-2.4s-7.5,4-10,6.8c-5.4,6-9.2,13.1-9.5,21.2,0,2.3.5,4.9,2.5,5.9,2.3,1,4.8-.7,6.8-2.3,6.7-5.7,15.6-13.9,22.2-19.7" />
</svg>