<?xml version="1.0" encoding="utf-8"?>
<svg
  version="1.1"
  viewBox="0 0 580 130"
  fill="none"
  stroke="#ffffff"
  strokeLinecap="round"
  strokeLinejoin="round"
  strokeWidth="6"
  xmlns="http://www.w3.org/2000/svg"
>
	<path d="M25.35,27.32c15.9-2.49,32.13-2.89,48.13-1.2" />
	<path d="M51.5,26.47C44.06,48.48,36.63,70.49,29.19,92.5" />
	<path d="M94.02,23.07c-6.93,20.75-13.86,41.49-20.78,62.24c7.92-7.61,16.37-14.65,25.29-21.06
		c1.86-1.33,3.98-2.7,6.24-2.38c3.44,0.49,5.13,4.64,4.89,8.11c-0.25,3.47-1.72,6.79-1.71,10.27c0.01,3.08,2.34,6.75,5.31,5.94" />
	<path d="M133.99,69.49c4,0.78,8.08,1.54,12.13,1.14c4.06-0.41,8.16-2.16,10.51-5.49c2.35-3.34,2.39-8.4-0.56-11.21
		c-4.76-3.23-11.6-1.29-15.65,2.8s-5.97,9.76-7.76,15.22c-1.12,3.42-2.26,7.01-1.61,10.55c0.82,4.42,4.68,8.1,9.13,8.71
		s9.16-1.9,11.14-5.93" />
	<path d="M176.69,57.38c2.29-0.52,4.61,1.31,5.41,3.52s0.46,4.66-0.02,6.96c-1.53,7.36-4.33,14.45-8.24,20.87
		c3.05-10.43,8.57-20.13,15.98-28.07c2.11-2.26,4.61-4.5,7.68-4.79s6.52,2.41,5.78,5.41" />
	<path d="M215.86,68.7c4.07,3.11,9.4,4.83,14.4,3.72c5-1.11,9.36-5.45,9.65-10.55c0.29-5.11-4.29-10.22-9.38-9.74
		c-3.89,0.36-6.93,3.48-9.19,6.67c-4.38,6.2-7.22,13.49-8.19,21.02c-0.58,4.51-0.16,9.83,3.54,12.47c2.79,1.99,6.69,1.77,9.8,0.32
		c3.11-1.44,5.59-3.92,8.01-6.34" />
	<path d="M265.38,23.96c-0.58-1.14-0.37-2.63,0.49-3.57s2.33-1.27,3.52-0.79c1.22,0.49,2.02,1.72,2.31,3
		s0.12,2.62-0.14,3.91c-1.01,5.04-3.44,9.79-6.94,13.56" />
	<path d="M293.95,62.95c3.77-1.04,5.85-5.99,3.95-9.41c-1.96-3.52-6.88-4.44-10.69-3.12c-3.81,1.32-6.76,4.31-9.57,7.21
		c-2.04,2.1-4.1,4.24-5.5,6.81c-1.4,2.57-2.07,5.68-1.14,8.46c1.26,3.78,5,6.03,8.22,8.38s6.42,5.84,5.74,9.76
		c-5.67,3.2-12.78,3.75-18.87,1.44" />
	<path d="M339.02,57.43c2.01-1.78,4.1-3.61,6.84-4.05c1.44-0.23,2.96,0.02,4.13,0.91c2.46,1.88,2.03,5.18,1.34,7.94
		c-2.27,9.19-6.02,18.02-11.04,26.05c4.66-10.07,11.84-18.97,20.71-25.65c1.05-0.79,2.4-1.18,3.7-0.94
		c2.56,0.47,3.01,2.81,3.15,4.86c0.4,5.91-0.42,11.91-2.41,17.49c3.27-7.88,9.2-14.93,16.53-19.38c1.42-0.86,4.83-0.31,5.04,1.34
		l1,20c0.31,1.57,2.66,1.88,4,1l4-3" />
	<path d="M421.31,63.19c-3.27,4.14-5.09,9.21-6.82,14.2c-1.24,3.57-2.37,7.86-0.07,10.85c1.67,2.18,4.77,2.89,7.45,2.3
		c2.68-0.58,5-2.25,7.02-4.11c5.1-4.7,8.77-10.93,10.43-17.66c0.57-2.31,0.9-4.75,0.27-7.04C436.86,51.87,425.38,58.05,421.31,63.19
		z" />
	<path d="M467.37,53.53c-3.69,12.4-7.38,24.8-11.07,37.2c3.88-15.72,17.15-28.73,32.94-32.29" />
	<path d="M501.15,67.85c3.69,3.04,8.51,4.93,13.25,4.35c4.74-0.58,9.24-3.96,10.38-8.6c1.14-4.64-1.8-10.12-6.48-11.09
		c-4.75-0.98-9.27,2.48-12.26,6.3c-4.95,6.33-7.77,14.29-7.91,22.33c-0.07,3.95,0.75,8.35,3.94,10.68c2.68,1.96,6.43,1.88,9.52,0.66
		s5.66-3.44,8.17-5.62" />
	<path d="M566.21,13.17c-2.03,10.5-7.03,20.14-11.5,29.86s-8.51,19.99-8.42,30.68" />
	<path d="M537.52,88.66c-0.13,0.68-0.26,1.37-0.39,2.05c0.57,0.61,1.5,0.84,2.29,0.57c0.79-0.27,1.38-1.03,1.45-1.86
		c-0.96-0.47-1.92-0.94-2.88-1.42" />
</svg>