<?xml version="1.0" encoding="utf-8"?>
<svg
  version="1.1"
  viewBox="0 0 1300 130"
  fill="none"
  stroke="#ffffff"
  strokeLinecap="round"
  strokeLinejoin="round"
  strokeWidth="6"
  xmlns="http://www.w3.org/2000/svg"
>
	<path d="M46.32,17.09C31.39,35.36,21.01,57.32,16.38,80.45c-0.62,3.1-1.13,6.33-0.34,9.38c1.13,4.38,4.91,7.77,9.2,9.2
		s9.01,1.08,13.36-0.16s8.4-3.33,12.41-5.41"/>
	<path d="M70.44,68.89c6.94,3.97,16.34,3.04,22.37-2.21c2.67-2.33,4.77-5.86,3.94-9.3c-0.91-3.77-5.19-6.02-9.05-5.67
		s-7.28,2.69-10.05,5.4c-5.97,5.85-9.83,13.82-10.72,22.13c-0.34,3.19-0.17,6.69,1.79,9.23c2.52,3.25,7.34,3.93,11.27,2.71
		c3.93-1.22,7.17-3.96,10.3-6.63"/>
	<path d="M107.97,50.05c9.76,1.03,19.64,0.89,29.36-0.43"/>
	<path d="M129.34,32.71c-10.43,14.23-17.99,30.56-22.11,47.71c-0.53,2.21-1,4.57-0.22,6.71c0.83,2.28,3,3.89,5.34,4.53
		c2.34,0.65,4.83,0.45,7.21-0.01c4.76-0.91,9.33-2.87,13.28-5.68"/>
	<path d="M158.2,20.98c1.66-0.85,3.71-1.69,5.29-0.7c1.13,0.71,1.6,2.18,1.47,3.51c-0.12,1.33-0.73,2.56-1.33,3.76
		c-2.39,4.8-4.78,9.6-7.17,14.39"/>
	<path d="M188.2,63.35c1.47-1.58,2.95-3.22,3.8-5.2c0.86-1.98,0.99-4.4-0.17-6.22c-1.35-2.12-4.18-2.92-6.66-2.52
		c-2.48,0.4-4.68,1.8-6.7,3.3c-4.74,3.53-8.92,7.81-12.32,12.64c-1.5,2.13-2.9,4.56-2.73,7.16c0.17,2.55,1.84,4.78,3.83,6.38
		c1.99,1.6,4.32,2.71,6.47,4.11c2.08,1.35,4.9,3.55,5.27,6c0.39,2.64-1.57,3.89-4,5s-5.91,1.95-8.42,1.05
		c-2.51-0.9-4.74-2.43-6.95-3.94"/>
	<path d="M260.52,62.89c2.95-2.62,3.53-7.51,1.27-10.75c-2.93-1.34-6.37-1.53-9.44-0.53c-3.8,1.24-6.8,4.15-9.45,7.14
		c-2.43,2.73-4.83,5.99-4.6,9.64c0.1,1.64,0.74,3.2,1.36,4.72c1.23,2.99,2.46,5.98,3.69,8.97c1.1,2.67,3.97,5.35,2.66,7.92
		c-1.41,2.75-6.92,4.02-9.88,3.14c-2.97-0.88-5.34-3.05-7.6-5.16"/>
	<path d="M276.71,69.64c5.15,1.35,10.61,2.69,15.71,1.17c4.83-1.44,8.77-5.54,10.01-10.42
		c0.39-1.55,0.51-3.27-0.26-4.67c-1.08-1.95-3.47-2.66-5.63-3.2c-1.67-0.42-3.42-0.83-5.09-0.4c-1.34,0.35-2.48,1.21-3.53,2.11
		c-5.73,4.86-10.16,11.23-12.73,18.3c-1.08,2.98-1.84,6.13-1.6,9.29c0.24,3.16,1.58,6.33,4.07,8.28c2.96,2.31,7.16,2.57,10.71,1.37
		s6.54-3.69,9.06-6.47"/>
	<path d="M316.99,69.02c2.77,2.28,6.11,3.86,9.63,4.55c1.88,0.37,3.89,0.48,5.64-0.29c1.64-0.72,2.87-2.12,4.04-3.49
		c1.4-1.63,2.81-3.28,3.8-5.18c0.99-1.91,1.54-4.12,1.1-6.22c-0.71-3.36-3.95-5.82-7.36-6.22c-3.41-0.39-6.84,1.02-9.47,3.22
		c-2.63,2.2-4.55,5.13-6.18,8.15c-1.39,2.56-2.62,5.23-3.5,8.01c-1.38,4.34-1.91,8.95-1.55,13.5c0.16,2.02,0.5,4.07,1.44,5.86
		s2.55,3.32,4.52,3.77c2.11,0.48,4.3-0.31,6.27-1.22c4.38-2.02,8.45-4.7,12.03-7.92"/>
	<path d="M388,54.74c-0.53,10.82-0.16,21.68,1.09,32.43c0.06,0.55,0.15,1.14,0.56,1.51c0.82,0.75,2.11,0.02,2.94-0.72
		c8.77-7.84,15.41-18.05,19.02-29.24c-2.76,8.16-3.48,17-2.09,25.5c0.31,1.87,0.97,4.02,2.76,4.63c1.81,0.61,3.66-0.73,5.04-2.05
		c8.03-7.66,13.74-17.71,16.23-28.52"/>
	<path d="M466.47,23.61c-7.93,14.34-12.41,30.29-16.83,46.07c-1.55,5.54-3.11,11.09-4.66,16.63
		c8.29-10.2,19.04-18.39,31.07-23.68c0.96-0.42,2.01-0.83,3.02-0.56c1.11,0.3,1.87,1.37,2.13,2.49c0.26,1.12,0.11,2.29-0.04,3.42
		c-0.63,4.79-1.27,9.57-1.9,14.36c-0.15,1.14-0.3,2.31-0.03,3.42c0.27,1.12,1.06,2.18,2.17,2.44c1.12,0.26,2.46-0.6,2.41-1.75"/>
	<path d="M526.62,75.16c3.26-3.07,4.39-8.2,2.71-12.35c-1.68-4.15-6.06-7.05-10.53-6.99
		c-7.13,6.03-12.74,13.83-16.18,22.51c-0.73,1.84-1.37,3.76-1.34,5.73c0.03,1.97,0.84,4.03,2.49,5.12c2.79,1.84,6.52,0.29,9.33-1.53
		c4.83-3.13,9.16-7.01,12.79-11.47c0.23,2.74,0.47,5.53,1.56,8.06c1.09,2.52,3.2,4.77,5.9,5.28s5.84-1.25,6.19-3.98"/>
	<path d="M553.75,56.26c9.95,0.44,19.95-0.33,29.72-2.29"/>
	<path d="M573.58,38.32c-7.2,13.19-11.92,27.72-13.85,42.62c-0.38,2.96-0.62,6.15,0.83,8.75
		c1.33,2.38,4.04,3.91,6.76,3.82s5.33-1.81,6.49-4.27"/>
	<path d="M634.03,27.66c13.09-1.4,26.18-2.8,39.26-4.21"/>
	<path d="M655,24c-6.91,21.31-17.22,52.49-24.13,73.8"/>
	<path d="M616.32,96.65c12.44-0.8,24.87-1.6,37.31-2.4"/>
	<path d="M681.4,22.9c0.24-1.39,0.95-2.75,2.15-3.5c1.19-0.75,2.89-0.75,3.94,0.19c1.3,1.17,1.21,3.21,0.9,4.92
		c-1.1,6.16-3.8,12.02-7.76,16.86"/>
	<path d="M684.41,59.77c2.64,9.05,5.29,18.09,7.93,27.14c7.88-6.65,14.68-14.6,20.03-23.42"/>
	<path d="M726.23,69.74c4.23,0.97,8.56,1.89,12.88,1.46c4.32-0.43,8.7-2.43,10.97-6.13c2.27-3.7,1.74-9.2-1.83-11.67
		c-2.28-1.58-5.34-1.7-7.97-0.81c-2.62,0.89-4.85,2.67-6.77,4.67c-5.19,5.42-8.4,12.69-8.91,20.17c-0.21,3.06,0.04,6.22,1.32,9
		s3.73,5.14,6.73,5.77c4.76,0.99,9.23-2.39,12.92-5.55"/>
	<path d="M819.51,23.33c-11.77,20-19.85,42.15-23.73,65.03c1.18-5.85,4.34-11.16,8.23-15.68s8.52-8.35,13.13-12.15
		c2.62-2.16,5.78-4.46,9.08-3.67c2.52,0.6,4.33,2.98,4.89,5.52s0.03,5.18-0.79,7.64c-2.34,7.03-7.25,13.24-13.74,16.8
		s-14.53,4.36-21.47,1.78"/>
	<path d="M849.81,68.05c2.82,3.97,8.15,5.98,12.89,4.86c4.74-1.12,8.61-5.29,9.36-10.11c0.66-4.24-1.62-9.23-5.82-10.11
		c-3.61-0.76-7.11,1.63-9.69,4.26c-6.21,6.33-10.08,14.92-10.7,23.77c-0.27,3.82,0.2,8.04,2.93,10.73
		c2.61,2.57,6.77,3.07,10.27,1.99c3.5-1.08,6.42-3.51,8.94-6.18"/>
	<path d="M882.62,66.64c4.43,2.27,8.96,4.57,13.89,5.3c4.92,0.73,10.4-0.36,13.77-4.03s3.68-10.17-0.16-13.34
		c-3.09-2.55-7.83-2.25-11.26-0.2s-5.79,5.51-7.65,9.05c-2.87,5.44-4.88,11.59-4.06,17.68c0.52,3.84,2.34,7.7,5.65,9.71
		c2.76,1.67,6.38,1.83,9.27,0.41c2.89-1.43,4.97-4.39,5.33-7.6"/>
	<path d="M938.61,54.65c-3.64,8.92-7.29,17.83-10.93,26.75c-0.71,1.73-1.12,4.26,0.6,4.99c1.27,0.54,2.62-0.46,3.63-1.4
		c5.55-5.12,11.09-10.24,16.64-15.36c1.78-1.64,4.31-3.38,6.38-2.13c1.61,0.97,1.84,3.17,1.89,5.05c0.09,3.38,0.18,6.76,0.27,10.14
		c0.04,1.63,0.13,3.39,1.15,4.66c1.02,1.27,3.33,1.58,4.15,0.17"/>
	<path d="M1035.09,65.57c1.75-2.97,1.32-7.05-1.01-9.59c-2.32-2.54-6.35-3.33-9.47-1.86c-2.83,1.34-4.62,4.16-6.08,6.93
		c-3.47,6.62-5.84,13.81-7,21.2c-0.42,2.69-0.6,5.72,1.1,7.85c2.15,2.69,6.29,2.66,9.6,1.68c6.28-1.85,11.78-6.25,14.95-11.98"/>
	<path d="M1070.02,57.11c-2.63,1.31-4.75,3.47-6.63,5.74c-2.93,3.53-5.42,7.41-7.4,11.55c-1.36,2.83-2.5,5.89-2.33,9.03
		s1.9,6.37,4.84,7.48c3.29,1.24,6.94-0.42,9.81-2.43c7.23-5.08,12.55-12.82,14.71-21.4c0.53-2.12,0.88-4.38,0.25-6.48
		C1081.73,55.43,1074.09,55.08,1070.02,57.11z"/>
	<path d="M1114.21,54.81c-7.36,5.3-12.98,12.98-15.82,21.6c-0.73,2.24-1.29,4.58-1.13,6.92s1.13,4.72,2.98,6.17
		c2.71,2.12,6.71,1.81,9.73,0.15c3.01-1.65,5.25-4.4,7.38-7.09c2.41-3.04,4.86-6.26,5.54-10.08s-4.19-9.37-7.9-10.49
		c2.72-0.19,11,0,13-1"/>
	<path d="M1164.05,26.94c-8.12,21.83-16.24,43.66-24.37,65.49"/>
	<path d="M1172.7,54.88c-7.26,6.79-15.66,12.37-24.75,16.42c7.05,7.23,14.1,14.45,21.15,21.68"/>
	<path d="M1194.54,60.83c-2.09,9.51-5.66,18.69-10.53,27.12"/>
	<path d="M1199.62,37.97c-0.3,1.19,0.51,2.55,1.7,2.85c0.64-1.17-0.15-2.86-1.45-3.12"/>
	<path d="M1221.49,54.56c-3.46,9.48-6.92,18.95-10.38,28.43c-0.43,1.17-0.81,2.63,0.04,3.55
		c1.23,1.34,3.42,0.06,4.72-1.21c5.02-4.89,10.04-9.79,15.07-14.68c1.62-1.58,3.87-3.28,5.91-2.31c1.69,0.81,2.12,2.98,2.34,4.84
		c0.43,3.69,0.86,7.38,1.29,11.07c0.16,1.39,0.39,2.91,1.46,3.81c1.07,0.9,3.19,0.43,3.2-0.96"/>
	<path d="M1290.77,65.08c2.03-3.5,0.16-8.39-3.37-10.38c-3.52-1.99-8.08-1.44-11.58,0.58c-3.51,2.01-6.12,5.28-8.28,8.7
		c-2.99,4.74-5.2,11.07-2.06,15.71c3.26,4.83,10.83,4.82,15.65,1.54s7.56-8.77,10.09-14.02c-3.53,12.14-7.06,24.29-10.59,36.43
		c-0.81,2.78-1.64,5.61-3.29,7.98c-1.65,2.37-4.3,4.25-7.19,4.21c-2.65-0.04-5.06-1.67-6.69-3.76c-1.63-2.09-2.59-4.6-3.54-7.07"/>
</svg>
