<?xml version="1.0" encoding="utf-8"?>
<svg
  version="1.1"
  viewBox="0 0 720 280"
  fill="none"
  stroke="#ffffff"
  strokeLinecap="round"
  strokeLinejoin="round"
  strokeWidth="6"
  xmlns="http://www.w3.org/2000/svg"
>
	<path class="line1" d="M40.19,28.56c-4.39,3.9-7.65,8.92-10.4,14.11C21.7,58,17.68,75.45,18.26,92.78
		c6.04,4.77,14.86,4.91,21.89,1.79c7.03-3.13,12.48-9.04,16.69-15.48c6.27-9.59,10.24-20.67,11.48-32.05
		c0.55-5.03,0.55-10.24-1.2-14.99C62.28,18.89,49.21,20.57,40.19,28.56z" />
	<path class="line1" d="M103.64,20.28c-9.8,23.63-19.3,47.39-28.5,71.27" />
	<path class="line1" d="M111.05,57.27c-7.94,5.53-16.66,9.92-25.84,13c3.78,0.84,6.76,3.8,8.91,7.02s3.71,6.83,5.96,9.98
		c2.25,3.15,5.45,5.94,9.3,6.41" />
	<path class="line1" d="M153.59,56.33c9.88-0.47,19.76-0.94,29.64-1.41" />
	<path class="line1" d="M172.99,39.06c-5.83,10.33-10.32,21.43-13.32,32.91c-0.98,3.77-1.81,7.68-1.23,11.53
		c0.58,3.85,2.85,7.66,6.47,9.08c3.62,1.42,8.48-0.4,9.46-4.17" />
	<path class="line1" d="M213.35,24.07c-7.15,21.47-14.3,42.94-21.46,64.41c6.52-8.35,14.12-15.85,22.56-22.26
		c2.65-2.01,6.23-3.97,9.09-2.29c1.65,0.97,2.49,2.93,2.66,4.83c0.17,1.9-0.23,3.8-0.51,5.69c-0.9,6.07-0.59,12.31,0.91,18.26" />
	<path class="line1" d="M280.3,63.32c-0.42-3.21-2.37-6.19-5.15-7.86c-2.78-1.66-6.33-1.97-9.36-0.82c-3.32,1.26-5.79,4.07-7.9,6.92
		c-4.28,5.81-7.65,12.28-9.96,19.12c-0.93,2.77-1.51,6.28,0.66,8.24c2.43,2.18,6.27,0.71,9.04-1.01
		c9.37-5.84,17.48-13.71,23.59-22.91c-2.24,8.41,0.24,17.91,6.31,24.15" />
	<path class="line1" d="M301.22,50.28c9.96,1.6,20.2,1.5,30.13-0.29" />
	<path class="line1" d="M322.28,33.52c-9.57,12.71-16.58,27.33-20.52,42.74c-1.03,4.05-1.76,8.69,0.59,12.14
		c2.22,3.25,6.63,4.39,10.52,3.79c3.89-0.59,7.39-2.61,10.79-4.58" />
	<path class="line1" d="M352.42,22.45c0.05-1.36,1.43-2.44,2.79-2.38c1.36,0.05,2.56,1.06,3.1,2.3c0.54,1.25,0.49,2.68,0.14,4
		c-0.35,1.31-1,2.52-1.63,3.72c-1.88,3.54-3.76,7.09-5.65,10.63" />
	<path class="line1" d="M380.74,62.87c3.22-0.49,5.33-4.24,4.56-7.41c-0.77-3.17-3.86-5.45-7.09-5.85s-6.51,0.84-9.13,2.79
		c-2.61,1.95-4.65,4.57-6.52,7.23c-1.6,2.27-3.12,4.65-3.9,7.31s-0.74,5.68,0.68,8.06c1.7,2.86,4.98,4.3,7.75,6.15
		c2.77,1.85,5.38,4.95,4.55,8.17c-0.91,3.52-5.35,4.83-8.96,4.35c-3.6-0.49-7.06-2.12-10.69-1.99" />
	<path class="line1" d="M428.72,68.93c4.06,1.04,8.22,2,12.4,1.69c4.18-0.31,8.44-2.08,10.84-5.52c2.39-3.44,2.32-8.69-0.82-11.46
		c-2.47-2.18-6.23-2.41-9.31-1.24s-5.55,3.53-7.62,6.08c-4.27,5.29-7.14,11.71-8.24,18.42c-0.75,4.6-0.34,10.05,3.4,12.84
		c2.72,2.02,6.53,2.01,9.71,0.83c3.17-1.18,5.85-3.38,8.47-5.53" />
	<path class="line1" d="M477.48,56.23c-1.14,9.49-3.93,18.77-8.21,27.31c7.06-7.59,15.27-14.11,24.27-19.25
		c1.28-0.73,2.76-1.46,4.17-1.04c2.46,0.73,2.72,4.06,2.49,6.62c-0.65,7.3-1.3,14.6-1.95,21.89" />
	<path class="line1" d="M537.99,54.55c-6.86,4.52-12.38,11.06-15.69,18.59c-1,2.27-1.81,4.68-1.87,7.16c-0.06,2.48,0.7,5.07,2.48,6.8
		c3.09,3.02,8.39,2.58,11.95,0.13s5.74-6.4,7.62-10.29c1.21-2.49,2.38-5.13,2.29-7.9s-1.84-5.68-4.56-6.2c2.6-0.33,5.19-0.66,7.79-1
		" />
	<path class="line1" d="M577.08,53.83c-6.03,7.35-9.59,16.68-9.99,26.18c-0.11,2.69,0.12,5.65,1.98,7.6c2.04,2.14,5.54,2.34,8.27,1.18
		s4.81-3.43,6.64-5.76c5.41-6.9,9.3-14.99,11.31-23.52" />
	<path class="line1" d="M638.63,58.17c-1.01-2.6-3.54-4.42-6.26-5.05c-2.72-0.62-5.59-0.17-8.21,0.77
		c-7.15,2.57-12.79,8.98-14.43,16.39c-0.47,2.11-0.59,4.47,0.57,6.29c1.47,2.31,4.55,3.04,7.28,2.82c5.03-0.41,9.58-3.36,12.96-7.12
		c3.38-3.75,5.75-8.28,8.08-12.76c-5.99,17.21-11.97,34.43-17.96,51.64c-0.47,1.35-0.97,2.75-1.95,3.8
		c-2.15,2.28-6.02,2.08-8.67,0.4s-4.37-4.46-5.99-7.14" />
	<path class="line1" d="M671.44,19.54c1.29,2.91,1.14,6.29,0.29,9.36s-2.36,5.91-3.79,8.75c-7.74,15.5-13.19,32.14-16.11,49.21
		c7.19-7.7,14.99-14.82,23.3-21.29c3.03-2.36,6.63-4.75,10.4-4.02c1.91,5.31,2.56,11.07,1.86,16.66c-0.22,1.79-0.58,3.62-0.15,5.37
		c0.43,1.75,1.92,3.41,3.72,3.31" />
	<path class="line1" d="M709.31,83.34c0.08,0.51,0.72,0.85,1.18,0.63c0.26-0.68-0.65-1.44-1.27-1.08c-0.01,0.15-0.03,0.3-0.04,0.45" />
	
	
	<path d="M49.69,245.23c6.1-12.85,12.19-25.7,18.29-38.55c3.27-6.88,6.55-13.79,10.69-20.19
		c4.14-6.4,9.19-12.31,15.47-16.63c0.89-0.62,1.84-1.21,2.9-1.42c1.06-0.22,2.28,0.02,2.99,0.84c0.63,0.73,0.76,1.76,0.84,2.73
		c1,11.85,0.14,23.76-0.72,35.61c-0.91,12.6-1.82,25.19-2.74,37.79" />
	<path d="M66.14,213.23c10.6,0.46,21.23,0.2,31.79-0.79" />
	<path d="M123.68,203.77c1.87,5.63-0.57,11.69-2.96,17.12c-2.23,5.06-4.46,10.13-6.69,15.19
		c9.37-6.92,19.02-13.47,28.92-19.62c1.38-0.86,3.06-1.73,4.54-1.06c1.94,0.89,1.94,3.59,1.79,5.72c-0.4,5.76,0.38,11.59,2.28,17.04
		" />
	<path d="M177.77,203.36c-4.1,7.75-6.7,16.29-7.61,25.01c-0.21,1.98-0.26,4.19,1,5.73c1.55,1.89,4.45,1.97,6.82,1.35
		c5.59-1.46,10.08-5.79,13.02-10.76c2.93-4.98,5.45-14.12,7-19.69c-3.58,14.47-8.63,32.3-13.27,46.47
		c-2.18,6.65-4.89,13.8-10.87,17.44c-1.54,0.94-3.24,1.59-4.98,2.06c-4.39,1.18-9.09,1.18-13.48-0.02" />
	<path d="M272.11,203.32c-3.75-1.44-7.73-2.91-11.69-2.19c-4.89,0.89-8.54,4.87-11.8,8.63
		c-2.13,2.46-4.26,4.91-6.4,7.37c-1.61,1.85-3.24,3.75-4.23,6c-0.98,2.25-1.23,4.95-0.07,7.11c1.61,2.98,5.53,4.1,8.85,3.41
		c3.32-0.69,6.14-2.8,8.72-5c7.39-6.28,13.79-13.73,18.9-21.98c-3.53,9.33-7.06,18.65-10.59,27.98
		c-4.17,11.01-8.36,22.13-9.98,33.78c4.17-0.56,8.11-2.73,10.81-5.96" />
	<path d="M295.23,203.84c-1.87,9.23-7.41,17.55-8.26,26.92c-0.14,1.52-0.14,3.09,0.31,4.55s1.42,2.82,2.8,3.46
		c1.37,0.63,3,0.5,4.4-0.05s2.62-1.49,3.77-2.47c8.95-7.63,15.02-18.57,16.76-30.2c-0.08,4.29-1.32,8.46-2.61,12.55
		c-1.29,4.09-2.65,8.21-2.96,12.49c-0.32,4.28,0.52,8.81,3.22,12.14" />
	<path d="M332.68,217.72c3.44,3.45,8.78,4.85,13.47,3.55c4.69-1.31,8.53-5.28,9.69-10.01c0.43-1.77,0.5-3.69-0.2-5.38
		c-0.8-1.93-2.56-3.37-4.54-4.02c-2.79-0.92-5.93-0.36-8.51,1.06c-2.58,1.41-4.65,3.61-6.39,5.98c-5.97,8.13-8.34,18.8-6.36,28.69
		c0.36,1.8,0.94,3.71,2.39,4.84c1.75,1.37,4.23,1.21,6.4,0.71c4.99-1.15,9.62-3.8,13.16-7.51" />
	<path d="M395.11,213.38c2.45-1.36,4.26-3.82,4.83-6.57c0.57-2.75-0.12-5.73-1.83-7.95c-2.27-0.38-4.64-0.2-6.83,0.53
		c-1.56,0.52-3.01,1.31-4.45,2.11c-4.23,2.38-8.44,5.05-11.34,8.93c-2.9,3.89-4.24,9.27-2.24,13.68
		c2.33,5.15,10.49,6.26,13.76,10.87c1.25,1.76,1.36,4.33,0,6c-0.84,1.03-3.75,2.71-5.07,2.9c-5.02,0.73-10.29-0.29-14.68-2.84" />
	<path d="M411.62,204.61c10.95,1.18,22.07,0.81,32.93-1.08" />
	<path d="M433.07,187.55c-8.05,13.34-13.07,28.5-14.58,44c-0.25,2.59-0.35,5.42,1.16,7.54c1.69,2.39,5.06,3.15,7.88,2.4
		c2.83-0.74,5.18-2.72,7.11-4.91" />
	<path d="M459.7,207.83c-1.12,10.58-4.92,20.86-10.93,29.63" />
	<path d="M465.32,187.09c0.12,0.45,0.7,0.7,1.12,0.49c-0.01-0.47-0.34-0.92-0.78-1.07" />
	<path d="M485.52,209.51c-3.41,3.59-5.59,8.14-7.68,12.63c-1.42,3.06-2.84,6.24-2.91,9.62
		c-0.07,3.37,1.56,7.02,4.68,8.28c1.93,0.78,4.15,0.55,6.07-0.25c1.92-0.8,3.57-2.13,5.08-3.55c6.28-5.9,10.63-13.82,12.25-22.28
		c0.37-1.95,0.6-4,0-5.89C500.4,199.79,489.26,205.57,485.52,209.51z" />
	<path d="M530.75,201.96c-1.88,4.87-3.76,9.74-5.64,14.62c-2.39,6.19-4.81,12.56-4.82,19.2
		c6.35-6.39,13.23-12.25,20.56-17.5c1.41-1.01,3.17-2.04,4.78-1.4c1.87,0.74,2.26,3.17,2.37,5.18c0.18,3.32,0.36,6.63,0.53,9.95
		c0.08,1.41,0.25,3.02,1.39,3.86c1.08,0.79,2.66,0.54,3.75-0.23s1.81-1.96,2.49-3.11" />
	<path d="M599.09,213.38c1.93-1.57,3.83-3.31,4.89-5.56s1.11-5.14-0.49-7.05c-1.21-1.45-3.18-2.13-5.07-2.1
		c-1.89,0.02-3.73,0.66-5.44,1.46c-4.2,1.94-7.9,4.82-11.32,7.93c-2.79,2.54-5.58,5.57-5.96,9.32c-0.31,3.11,1.13,6.18,3.17,8.54
		s4.66,4.14,7.18,5.98c1.42,1.03,2.85,2.12,3.82,3.59c0.97,1.46,1.43,3.38,0.74,5c-0.91,2.17-3.47,3.1-5.81,3.38
		c-4.7,0.55-9.58-0.68-13.45-3.4" />
	<path d="M631.25,182.13c-0.32-7.96,4.95-15.83,12.42-18.57c2.18-0.8,4.56-1.19,6.82-0.72
		c2.66,0.55,4.99,2.28,6.54,4.51c1.55,2.22,2.37,4.91,2.61,7.61c0.49,5.32-1.22,10.8-4.65,14.9c-1.8,2.15-4.02,3.9-6.23,5.63
		c-5.4,4.2-10.93,8.38-15.09,13.8c-2.62,3.42-4.71,7.64-4.01,11.89" />
	<path d="M623.27,238.5c-0.25,0.31-0.06,0.86,0.33,0.95c0.39,0.09,0.8-0.31,0.72-0.71c-0.08-0.39-0.63-0.59-0.94-0.35"
		/>
</svg>
