<?xml version="1.0" encoding="utf-8"?>
<!-- Generator: Adobe Illustrator 28.1.0, SVG Export Plug-In . SVG Version: 6.00 Build 0)  -->
<svg version="1.1" id="Layer_1" xmlns:mydata="http://www.w3.org/2000/svg"
	 xmlns="http://www.w3.org/2000/svg" xmlns:xlink="http://www.w3.org/1999/xlink" x="0px" y="0px" viewBox="0 0 400 280"
	 xml:space="preserve">
<style type="text/css">
	.st0 {
		fill: #ffffff;
	}
</style>
<g id="Name">
	<path class="st0" d="M51,203.8h-9.9L18,259h14.2l13.9-36.2L60,259h14.2L51,203.8z"/>
	<path class="st0" d="M91.7,203.8H79.1V259h31.6v-11h-19L91.7,203.8z"/>
	<path class="st0" d="M131.2,259h9.9l23.1-55.2H150l-13.9,36.2l-13.9-36.2H108L131.2,259z"/>
	<path class="st0" d="M178.9,203.8h-12.6V259h12.6V203.8z"/>
	<path class="st0" d="M199.5,224.8h0.1l21.9,34.2h12.6v-55.2h-12.6v34.2h-0.1l-21.9-34.2h-12.6V259h12.6V224.8z"/>
	<path class="st0" d="M256.9,214.9h13.1V259h12.6v-44.1h13.1v-11h-38.8V214.9z"/>
	<path class="st0" d="M331.8,203.8h-31.6V259h31.6v-11h-19v-11.1H331v-11h-18.2v-11h19V203.8z"/>
	<path class="st0" d="M351.6,236.9h17.8V259H382v-55.2h-12.6v22h-17.8v-22h-12.6V259h12.6V236.9z"/>
</g>
<g id="Monogram">
	<path class="st0" d="M189.9,105.2l10-20.7l28.7,59.3H184l-13.7,28.6h103.8L199.9,18.8l-74,153.5h31.6L189.9,105.2z"/>
</g>
</svg>
