<?xml version="1.0" encoding="UTF-8" standalone="no"?>
<!-- Created with Inkscape (http://www.inkscape.org/) -->

<svg
   version="1.1"
   id="svg2"
   width="258.66666"
   height="258.66666"
   viewBox="0 0 258.66666 258.66666"
   sodipodi:docname="Origins.eps"
   xmlns:inkscape="http://www.inkscape.org/namespaces/inkscape"
   xmlns:sodipodi="http://sodipodi.sourceforge.net/DTD/sodipodi-0.dtd"
   xmlns="http://www.w3.org/2000/svg"
   xmlns:svg="http://www.w3.org/2000/svg">
  <defs
     id="defs6" />
  <sodipodi:namedview
     id="namedview4"
     pagecolor="#fffff"
     bordercolor="#000000"
     borderopacity="0.25"
     inkscape:showpageshadow="2"
     inkscape:pageopacity="0.0"
     inkscape:pagecheckerboard="0"
     inkscape:deskcolor="#d1d1d1" />
  <g
     id="g8"
     inkscape:groupmode="layer"
     inkscape:label="ink_ext_XXXXXX"
     transform="matrix(1.3333333,0,0,-1.3333333,0,258.66667)">
    <g
       id="g10"
       transform="scale(0.1)">
      
      <path
         d="m 1129.85,1174.86 h 25.51 l 24.16,4.03 17.45,-2.69 c 6.72,-1.34 12.09,0 9.4,9.4 l -4.03,4.03 -6.71,2.68 -2.68,4.03 4.02,5.37 h 6.72 l 5.37,-2.69 10.74,-2.68 c 10.74,-4.03 16.11,-10.74 16.11,-17.45 v -4.03 l 6.71,-12.09 8.06,-6.71 c 2.68,-1.34 6.71,-6.71 13.42,-8.05 l 16.11,-9.4 c 2.69,-2.68 2.69,-4.03 2.69,-6.71 l -5.37,-4.03 -17.46,1.34 -10.74,6.72 c -5.37,5.37 -12.08,6.71 -22.82,9.39 l -4.03,2.69 h -9.4 l -10.74,1.34 -6.71,-4.03 -9.4,-4.02 v -2.69 l 2.69,-2.68 8.05,-4.03 12.09,-2.69 6.71,-6.71 1.34,-6.71 c 2.69,-4.03 2.69,-10.74 0,-17.45 16.11,-2.69 25.51,-9.41 22.82,-16.12 l -30.87,-1.34 c -13.43,1.34 -25.51,1.34 -36.25,0 l -24.17,-6.71 h -5.37 v -2.69 c -13.42,-2.68 -21.48,-4.03 -28.19,-9.39 l -18.8,-1.35 -17.45,-5.37 c 0,-1.34 2.69,-1.34 4.03,-1.34 h 5.37 l 10.74,-2.69 c -2.69,-4.02 0,-6.71 6.71,-6.71 l 16.11,2.69 28.19,1.34 9.4,-4.03 v -2.68 c 4.03,-1.34 6.72,-4.03 9.4,-4.03 17.45,6.71 30.88,6.71 37.59,2.69 10.74,-9.4 26.85,-12.09 42.96,-9.4 l 13.43,2.68 h 8.05 l 6.72,-5.37 13.42,-6.71 c 6.71,-1.34 12.09,-4.03 13.43,-4.03 l 9.39,9.4 6.72,4.03 6.71,6.71 4.03,2.69 2.68,1.34 4.03,2.68 9.4,2.69 h 16.11 c 4.03,1.34 8.05,10.74 13.43,24.16 v 16.11 l 1.34,10.75 v 10.73 l -8.06,20.14 -2.68,12.09 -10.74,17.45 -13.43,10.74 c -12.08,5.37 -20.14,5.37 -22.82,2.69 l -10.74,-9.41 c -5.37,-4.02 -9.4,-6.71 -16.11,-4.02 -4.03,0 -9.4,2.68 -13.43,6.71 l -13.42,9.4 c -2.69,1.34 -4.03,8.05 -6.72,17.45 -2.68,6.71 0,10.74 6.72,13.43 l 16.11,6.71 13.42,2.69 10.74,-5.37 c 2.69,-1.35 2.69,0 2.69,2.68 l 1.34,4.03 6.71,13.43 18.8,13.42 10.74,6.71 2.68,2.69 v 10.74 l -2.68,5.37 v 8.05 l -2.69,5.37 c -1.34,14.77 -4.02,21.49 -6.71,24.17 l -8.05,6.71 -5.37,4.03 v 12.08 l 5.37,13.43 v 4.03 l 1.34,6.71 v 2.68 c -1.34,8.06 -8.06,14.77 -14.77,17.45 l -5.37,2.69 -1.34,1.35 -5.37,9.39 -8.06,2.68 -18.79,6.72 c -4.03,1.34 -8.06,8.05 -13.43,14.77 l -10.74,16.11 h -10.74 l -9.4,2.68 c -4.02,6.72 -4.02,14.77 0,24.17 2.69,6.71 6.71,13.43 13.43,17.45 l -13.43,5.37 -10.74,4.03 -13.42,6.71 -18.8,2.69 -37.59,-5.37 c -13.43,0 -22.82,2.68 -26.85,9.4 v 2.68 h -24.17 c -6.71,0 -12.08,1.34 -13.42,6.71 l -9.4,1.35 h -6.71 c -6.72,2.68 -10.74,5.37 -13.43,6.71 l -9.4,6.71 c -4.02,2.68 -6.71,6.71 -8.05,12.09 -2.69,4.02 0,8.05 4.03,10.74 l 13.42,4.02 36.25,12.08 c 20.14,8.06 40.27,17.46 55.04,26.86 16.12,6.71 32.22,13.42 49.68,17.45 l 22.82,2.69 20.14,-2.69 h 20.14 l 20.14,-2.69 13.42,-1.34 c 4.03,-2.68 6.72,-2.68 8.06,-2.68 h 29.53 l 13.43,-6.72 10.74,-9.4 36.25,-48.32 6.71,-5.38 c 2.69,-1.34 4.03,-6.71 2.69,-14.76 v -5.37 l 1.34,-1.35 2.68,-6.71 v -2.68 l -6.71,-10.75 -6.71,-9.39 -6.72,-10.74 -6.71,-9.4 h 6.71 l 13.43,6.71 6.71,2.69 c 10.74,-6.71 17.46,-9.4 24.17,-5.37 9.4,6.71 12.08,12.08 5.37,16.11 -6.71,2.68 -9.4,9.39 -12.08,20.14 l 2.68,16.11 6.72,1.34 h 6.71 c 9.39,-4.03 16.11,-6.71 20.13,-4.03 h 10.75 l 6.71,-2.68 18.79,-4.03 c 8.06,0 14.77,-2.69 17.46,-6.71 l 4.02,-10.75 6.72,-2.68 h 9.39 l 16.12,-4.03 6.71,-5.37 8.06,-6.71 c 2.68,0 2.68,-1.34 0,-6.71 2.68,-1.34 0,-4.03 -1.35,-4.03 l -6.71,-4.03 4.03,-5.37 c 2.68,-1.34 6.71,-4.03 17.45,-6.71 l 16.11,-4.03 13.43,-6.71 c 2.68,-2.69 4.02,-4.03 4.02,-10.74 2.69,-6.72 5.38,-12.09 6.72,-13.43 l 6.71,-5.37 9.4,-4.02 4.03,-4.04 9.39,-18.79 9.4,-20.14 4.03,-26.85 -4.03,-28.19 c 0,-2.69 -2.68,-5.37 -5.37,-6.71 l -4.03,-5.37 -6.71,-8.06 c -2.68,-2.69 -2.68,-2.69 0,-2.69 2.68,-2.68 2.68,-4.02 2.68,-6.71 l -6.71,-10.74 -6.71,-6.71 c -2.69,-5.37 -2.69,-9.4 1.34,-13.43 h 9.4 l 6.71,6.71 v 6.72 l -2.68,6.71 c -1.35,14.77 6.71,21.48 29.54,20.14 l 10.73,-2.69 9.4,-4.02 17.46,-12.09 c 9.39,-6.71 13.42,-13.42 13.42,-20.13 l 6.71,-10.74 5.37,-9.4 c 0,-14.77 -2.68,-20.14 -5.37,-14.77 -1.34,4.03 -8.05,8.06 -20.13,10.74 l -6.72,-2.68 -1.34,-1.35 -5.37,-5.37 V 1195 l 2.68,-5.37 c 0,-1.34 0,-1.34 -2.68,0 h -4.03 l -4.02,-4.03 c 0,-6.71 1.34,-9.4 6.71,-9.4 l 8.05,2.69 h 5.37 l 8.06,-4.03 6.71,-5.37 c 5.37,-1.35 9.4,-4.03 12.08,-8.06 l 6.71,-12.08 c 1.35,-4.03 0,-8.05 -2.68,-10.74 h -6.71 l -6.72,4.03 -6.71,-1.34 -2.68,-5.37 6.71,-13.43 6.71,-8.05 c 2.69,-6.72 0,-12.09 -1.34,-13.43 -2.69,-5.37 -5.37,-6.71 -6.71,-5.37 -6.71,5.37 -16.11,5.37 -25.51,0 l -6.71,-6.72 -4.03,-6.71 c -2.69,-1.34 -4.03,-1.34 -9.4,-1.34 -4.02,0 -6.71,-2.68 -6.71,-5.37 l -4.03,-4.03 -4.03,-2.68 c -2.68,-1.35 -5.37,-1.35 -6.71,-1.35 l -2.68,-5.36 v -6.72 c 2.68,-1.34 4.02,-1.34 6.71,-1.34 l 2.68,4.03 1.34,4.03 5.37,5.36 c 1.35,1.35 6.72,1.35 13.43,0 4.03,-2.68 8.06,0 10.74,1.35 l 2.69,-1.35 1.34,-9.39 c 2.68,-2.69 2.68,-6.72 2.68,-13.43 -2.68,-6.71 0,-9.4 2.69,-10.74 1.34,0 1.34,0 1.34,1.34 v 2.69 l 5.37,2.69 1.35,4.02 2.68,2.69 c 2.69,1.34 2.69,6.71 0,13.42 l -2.68,8.06 c -1.35,16.11 2.68,22.82 13.42,18.79 2.68,-2.68 6.71,-6.71 9.4,-18.79 l 4.02,-13.43 2.69,-6.71 2.68,-4.03 1.35,-2.68 v -14.77 l -4.03,-6.71 -9.4,-9.4 -4.03,-4.03 -4.02,-2.68 -5.37,-4.03 h -1.34 l -9.4,10.74 c -2.69,4.02 -4.03,6.71 -6.72,6.71 -2.68,0 -4.02,-2.69 -4.02,-6.71 l -2.69,-9.4 -9.4,-17.451 c -1.34,-2.688 -4.02,-4.028 -8.05,-4.028 l -9.4,-2.687 c 0,-2.688 -2.69,-6.711 -4.03,-13.422 l -5.37,-2.687 -6.71,-1.344 -8.06,-2.688 -12.08,2.688 -6.71,4.031 h -13.43 l -10.73,-4.031 -9.41,-6.711 c -4.02,-6.715 -8.05,-9.399 -10.73,-9.399 l -9.4,2.684 -6.71,4.027 -17.46,6.711 h -20.14 l -20.13,-2.683 c -6.72,0 -10.75,-1.34 -13.43,-4.028 l -4.03,-9.398 -2.68,-4.027 h -10.74 l -5.37,2.683 -1.34,1.344 -18.8,6.715 -20.14,5.371 h -20.14 c -6.71,0 -13.42,1.34 -21.48,4.023 -9.4,2.688 -16.11,4.032 -18.8,4.032 l -4.02,-8.055 c 0,-5.371 -2.69,-6.715 -4.03,-6.715 -16.11,1.344 -33.56,6.715 -52.36,17.457 -10.74,6.711 -21.48,9.395 -28.19,6.711 1.34,-6.711 4.03,-13.43 1.34,-20.141 -1.34,-6.711 -4.03,-10.742 -6.71,-13.425 l -20.14,-13.422 -21.48,-10.742 -12.09,-9.399 c -6.71,-6.715 -8.05,-13.426 -10.74,-22.824 -2.68,-24.164 -2.68,-37.59 0,-44.305 l 2.69,-26.851 v -26.848 l 13.43,2.684 26.84,6.714 51.02,6.711 29.54,4.028 57.73,4.027 136.94,-4.027 51.02,-9.395 h 16.1 l 10.75,-1.344 26.85,-2.687 51.01,-6.711 13.43,-2.688 33.56,-1.339 80.56,-9.403 26.84,-6.711 c 9.4,-2.683 16.12,-4.027 22.83,-9.398 l 2.69,-4.027 v -9.395 c 1.34,-6.715 8.05,-14.77 17.45,-24.168 l 17.45,-20.137 v -9.398 c -1.34,-1.344 -4.03,-4.027 -6.71,-1.344 -4.03,1.344 -13.43,4.027 -26.85,6.711 l -26.86,4.031 c -14.76,4.028 -26.84,6.711 -37.59,6.711 h -6.71 l -10.74,2.688 h -9.4 l -9.4,1.34 -37.59,2.683 -44.3,6.715 -140.96,16.109 -56.39,4.032 -49.68,2.683 c -4.02,-2.683 -13.42,-2.683 -24.16,0 h -24.17 l -33.56,-5.371 h -36.25 l -24.17,-1.344 -20.14,-5.367 h -2.68 v -1.344 l 2.68,-5.371 4.03,-4.027 c 6.72,-6.715 13.43,-9.398 22.83,-10.738 l 13.42,-5.371 30.88,-14.77 c 2.68,-2.683 4.03,-5.367 4.03,-9.398 v -9.395 l -6.72,-4.027 -4.02,-4.031 -6.72,-5.372 -6.71,-1.339 h -9.4 c -6.71,-2.684 -13.42,-5.371 -21.48,-2.684 l -20.14,4.023 -13.42,2.688 -12.08,2.684 -13.43,1.343 -10.74,5.371 -46.99,8.055 c -17.45,5.371 -37.59,6.715 -63.1,6.715 h -17.45 l -16.11,2.684 h -17.46 -13.42 c -29.54,2.683 -46.99,2.683 -56.386,0 L 958,684.828 h -16.109 l -17.453,1.344 -42.961,2.683 -20.141,2.684 h -17.453 l -17.449,1.344 h -13.43 l -18.793,-1.344 h -68.473 l -53.699,-2.684 h -110.09 l -80.554,-4.027 -67.125,-6.711 -13.426,-2.687 h -13.426 l -13.426,-2.684 h -16.109 l -14.77,-1.344 -25.508,-6.711 -37.589,-5.371 -98.008,-4.027 c -2.688,0 -6.711,2.684 -12.082,4.027 -1.344,2.688 -1.344,6.715 0,12.082 6.711,6.715 16.109,10.743 26.847,10.743 16.114,0 26.856,2.683 38.938,6.71 10.738,2.684 28.195,6.715 48.332,10.743 l 45.645,12.082 10.742,4.027 71.156,13.426 h 12.078 l 13.43,2.683 h 10.738 l 10.742,1.344 60.414,2.688 46.989,2.683 42.961,1.344 4.027,5.367 v 4.028 l 5.371,2.687 1.344,4.027 9.394,16.11 2.688,8.054 c 6.715,29.536 10.742,53.704 10.742,73.844 v 12.082 l -6.715,46.989 -2.687,26.847 c 0,1.344 -1.34,4.031 -4.028,4.031 l -4.023,2.684 -13.43,4.027 c -6.711,2.688 -13.422,4.028 -20.137,10.743 l -18.796,16.109 -28.192,33.566 c -6.715,6.71 -16.109,10.74 -25.508,10.74 l -20.14,-1.34 -10.739,-9.4 -6.714,-6.71 -13.422,-4.03 c -6.715,0 -10.743,0 -13.426,1.34 l -10.742,5.37 c -6.711,0 -9.399,1.34 -12.082,4.03 -1.344,6.71 -4.032,10.74 -8.059,9.4 l -12.078,-9.4 -4.031,-6.71 h -9.395 l -6.715,4.02 -4.027,-1.34 -4.027,-5.37 c -5.371,-6.713 -6.711,-8.057 -9.399,-10.74 -22.824,-6.711 -37.59,-6.711 -49.676,-4.028 l -10.738,1.344 -13.426,-1.344 -9.398,4.028 -6.711,2.683 c -4.027,-2.683 -10.742,-2.683 -20.137,0 l -6.715,4.028 h -6.714 c -1.34,0 -8.055,-2.684 -17.454,-6.711 -6.71,-2.684 -13.425,-4.028 -20.136,-2.684 -4.028,0 -9.399,2.684 -10.742,6.711 l -6.711,6.713 -9.399,9.4 -4.027,6.71 c -2.688,2.69 -5.371,4.03 -6.711,4.03 v -1.34 h -2.688 v -5.38 h -2.683 c 2.683,-1.34 2.683,-1.34 0,-1.34 h -1.344 l -2.684,-2.68 h -4.031 l -12.078,-2.69 -13.426,2.69 h -14.769 c -5.371,2.68 -9.399,4.02 -16.114,6.71 v 2.69 h -2.683 l -1.344,1.34 h -2.6835 l -9.3984,2.68 c -4.0273,-2.68 -8.0547,0 -13.4219,4.03 -1.3437,2.69 -1.3437,6.71 -1.3437,16.11 0,6.71 0,10.74 -2.6875,13.43 l -4.0274,4.03 -6.7109,2.68 c 1.3398,0 1.3398,0 0,2.68 l -2.6836,1.35 v 6.71 c -6.7148,5.37 -13.4297,13.42 -17.457,29.54 l 1.3437,24.16 12.086,13.43 c 1.3398,2.68 4.0273,5.37 4.0273,6.71 l 2.6836,6.71 c 4.0273,9.4 13.4258,16.12 26.8476,18.8 l 6.7149,1.34 20.1408,-1.34 10.738,-6.72 c 2.684,-2.68 4.027,-2.68 4.027,0 l 5.372,1.35 c 1.343,0 4.027,2.69 4.027,5.37 l 2.683,4.03 c 1.344,2.68 4.028,6.71 6.715,10.74 l 4.028,5.37 v 6.71 c -2.684,6.71 -2.684,10.74 0,13.43 l 6.711,8.05 6.714,6.72 c 2.684,2.68 6.711,2.68 16.11,2.68 6.715,0 10.742,0 10.742,2.68 -2.687,1.35 -4.027,4.03 -9.398,4.03 h -13.426 l -17.453,-6.71 c -9.399,-2.68 -13.426,0 -13.426,4.03 -2.684,6.71 -4.027,9.4 -9.399,9.4 -10.742,0 -17.453,4.02 -20.136,13.42 l 2.683,13.42 2.688,10.75 8.051,22.82 9.402,9.39 13.422,1.35 6.715,-1.35 c 2.683,0 4.027,0 6.711,1.35 2.683,2.69 2.683,6.71 2.683,12.08 -2.683,6.71 -2.683,10.74 0,13.43 1.344,6.71 8.059,8.05 17.453,10.74 l 6.715,4.03 2.688,6.71 13.422,9.39 6.714,4.04 c 1.344,2.68 4.028,5.36 4.028,6.71 0,5.36 2.683,6.71 9.398,9.4 l 14.766,2.68 c 5.371,1.34 6.715,4.03 9.398,6.71 4.028,17.46 9.399,28.2 13.426,33.57 v 1.34 l 9.398,2.68 6.711,2.69 c 1.344,1.34 1.344,4.02 0,8.06 l -2.683,13.42 c 2.683,-1.34 2.683,0 2.683,2.69 v 2.68 l 1.344,1.34 v 2.69 l 12.082,9.39 10.742,8.06 c 6.711,2.69 10.739,9.4 16.11,18.8 6.715,10.73 10.742,17.45 13.426,20.14 13.425,10.74 21.48,14.76 28.195,17.45 6.711,2.68 16.109,0 26.847,-4.03 2.688,8.06 12.086,13.42 26.856,14.77 h 12.078 l 8.059,-4.03 h 13.422 l 13.429,2.68 -8.054,13.43 h -2.688 l -6.715,8.05 -2.683,6.72 c 2.683,5.37 5.371,6.71 9.398,5.37 4.027,0 6.715,-2.69 9.398,-6.71 0,-2.69 1.344,-2.69 4.028,-2.69 h 6.715 l 9.394,-2.69 h 6.715 8.055 c 0,5.38 0,6.72 -1.344,9.4 l -5.371,4.03 c -4.027,2.69 -6.711,6.71 -6.711,16.11 5.371,-2.68 6.711,0 9.398,2.69 l 4.028,4.02 18.797,6.72 c 1.339,0 1.339,2.68 1.339,4.03 l 2.688,9.39 10.742,4.03 9.395,2.69 c 10.742,9.39 30.879,17.45 63.101,26.85 l 13.422,2.68 h 13.43 l 17.453,-5.37 16.109,2.69 21.481,-2.69 18.797,-6.71 c 1.339,0 4.027,-1.34 6.711,-8.06 1.339,-2.68 4.027,-5.37 6.711,-5.37 l 13.425,2.69 h 13.426 l 1.344,4.02 5.367,6.72 c 6.719,2.69 8.059,6.71 6.719,12.08 -2.688,6.72 -5.375,8.06 -12.086,8.06 -4.028,0 -6.711,5.37 -4.028,12.08 2.684,4.03 6.711,6.71 16.114,6.71 l 20.136,1.35 c 4.028,0 8.055,-1.35 10.739,-4.03 l 6.715,-6.72 9.394,2.69 6.715,4.03 h 10.738 c 4.028,2.68 6.715,2.68 6.715,2.68 l 10.738,1.35 c 5.371,0 6.715,0 6.715,-1.35 2.684,-2.68 5.371,-6.71 2.684,-12.08 -2.684,-1.34 -4.028,-4.03 -6.711,-1.34 0,-2.69 0,-2.69 -2.688,-2.69 h -1.339 l -2.684,-2.68 v -1.34 l 10.738,-6.72 6.715,-6.71 26.848,8.06 h 13.426 c 2.683,-1.35 6.71,-4.03 9.398,-1.35 l 13.426,-2.68 10.742,-2.69 c 16.109,-1.34 26.848,-4.02 33.562,-8.05 5.372,-2.69 9.399,-9.4 16.11,-22.83 l 2.683,-10.74 c 0,-6.71 0,-9.4 -2.683,-6.71 -6.711,0 -9.399,-2.69 -6.711,-6.71 0,-6.71 0,-9.4 -2.688,-12.09 -1.339,0 -6.711,2.69 -10.742,5.38 h -2.683 l -1.34,-2.69 -5.371,-2.69 h -1.344 c -13.426,5.38 -20.137,6.72 -22.824,6.72 -2.684,2.68 -6.711,2.68 -13.422,-1.34 -2.688,-2.69 -6.715,-2.69 -13.43,-5.38 l -29.535,-10.74 -4.027,-2.68 h -2.684 c -6.711,0 -8.055,0 -6.711,-1.34 -8.059,0 -14.769,1.34 -20.141,4.02 l -6.714,-2.68 -4.028,-4.03 -13.426,-4.03 -2.683,-6.71 2.683,-9.4 c 2.688,-2.68 2.688,-6.71 4.032,-13.42 0,-6.71 0,-10.74 2.683,-10.74 l 2.684,-2.69 4.027,-2.68 h 6.715 l 13.426,2.68 c 9.398,2.69 17.453,9.4 26.851,16.11 l 24.165,20.14 c 9.398,6.71 22.824,10.74 40.277,14.77 20.137,2.68 40.273,2.68 60.414,0 l 5.371,-6.72 1.344,-8.05 c 2.683,-5.37 2.683,-9.4 0,-12.08 l -1.344,-6.71 -2.687,-14.77 c -2.684,-6.71 -2.684,-9.4 -4.028,-9.4 l -9.394,-13.43 -2.688,-6.71 -4.027,-4.03 -4.028,-6.71 v -5.37 l -18.796,-6.71 -14.77,-1.35 -16.109,4.03 -6.711,2.69 -4.028,1.34 -22.824,-1.34 -20.137,1.34 -13.425,-8.06 -10.743,-6.71 c -6.71,-5.37 -16.109,-6.71 -25.507,-5.37 l -10.743,-1.34 c -6.71,-5.37 -9.394,-6.71 -9.394,-6.71 l -20.141,-9.4 16.114,-16.11 9.394,-8.06 8.059,-2.68 c 2.683,0 5.367,0 6.711,2.68 l 2.683,4.03 10.742,4.03 5.372,5.37 4.027,4.02 6.711,10.75 c 6.715,2.68 10.742,2.68 17.453,-1.34 l 9.398,-12.09 c 2.684,-1.34 6.711,-1.34 9.399,0 l 1.344,5.37 2.683,1.35 16.11,2.68 h 14.769 l 18.793,2.69 14.77,-2.69 6.714,-4.03 c 2.684,-2.69 5.372,-2.69 2.684,0 v 13.43 c 0,4.03 2.688,6.71 4.027,8.05 9.399,6.71 16.114,12.08 18.797,12.08 4.028,1.35 8.055,4.03 10.739,8.06 l 10.737,6.71 c 9.4,2.69 18.8,0 26.85,-4.02 2.69,-2.69 5.38,-4.03 2.69,-6.72 l 2.69,-2.68 1.34,-4.03 v -2.69 l 2.68,-1.34 v -2.68 l 9.4,-4.03 h 10.74 c 10.74,-2.68 17.45,-12.08 17.45,-26.85 V 1438 c -1.34,-6.71 -4.02,-10.74 -8.05,-13.43 l -32.22,-14.77 c -1.34,0 0,-2.68 2.68,-5.37 l 4.03,-4.02 12.08,-10.75 c 1.35,-2.68 6.72,-5.36 13.43,-5.36 h 14.77 l 6.71,5.36 5.37,4.04 c 6.71,2.68 10.74,6.71 13.43,9.39 1.34,1.34 4.02,4.03 10.74,4.03 l 24.16,-2.69 9.4,-4.02 4.03,-6.71 6.71,-6.72 5.37,-4.03 c 1.35,-6.71 1.35,-12.08 0,-18.79 -2.68,-8.06 -2.68,-14.77 -2.68,-17.45 0,-4.03 -2.69,-9.4 -4.03,-10.75 l -9.4,-9.39 c -2.69,-2.69 -4.03,-2.69 -9.4,-2.69 l -8.06,2.69 -9.39,-4.03 -6.71,-6.72 c -6.72,-5.36 -16.11,-6.71 -24.17,-9.39 h -16.11 -2.69 l -10.74,4.03 -17.45,9.4 -18.8,10.73 c -4.02,2.69 -6.71,2.69 -8.05,0 -6.71,-10.73 -12.08,-20.13 -16.11,-24.16 l -4.03,-2.68 c -5.366,-1.35 -9.397,0 -16.108,2.68 l -29.536,17.45 -8.054,5.37 h -5.371 l -4.028,1.34 -17.453,5.37 h -32.222 l -26.852,-5.37 -17.453,-4.02 -6.711,-4.03 -6.711,-2.68 -13.43,-13.43 -33.562,-29.54 c -2.684,0 0,-1.34 2.683,-4.03 4.032,-2.68 6.715,-4.02 6.715,-6.71 l 17.453,9.4 33.563,17.45 20.14,2.69 2.684,-2.69 h 13.426 l 6.715,-2.68 14.765,-1.34 45.649,-2.69 c 14.765,0 26.847,-2.68 33.562,-6.71 0,-4.03 1.344,-9.4 8.055,-16.11 2.684,-1.34 2.684,-6.72 0,-10.74 l -10.738,-10.75 -6.715,-12.07 4.027,-6.72 6.715,2.69 2.684,4.03 13.425,5.36 h 6.713 l 4.03,-2.68 c 2.68,0 5.37,-2.68 6.71,-4.03 l 2.68,-5.37 c 4.03,-6.71 9.4,-10.74 13.43,-13.42 h 22.82 10.74 c 4.03,0 6.72,0 9.4,2.68 6.72,24.17 13.43,37.59 17.46,44.3 6.71,6.72 13.42,12.09 20.13,12.09 6.72,0 10.74,-5.37 13.43,-13.43 l 6.71,-16.11 4.03,-13.42 c 0,-9.4 -1.35,-13.43 -8.06,-16.11 l -12.08,2.68 -6.71,-6.71 -4.03,-9.4 -2.68,-6.71 -1.35,-4.03 c 1.35,-2.69 4.03,-4.03 8.06,-6.71 l 13.42,-4.03 z m 83.23,134.25 2.69,-5.36 4.03,-1.35 10.74,-5.37 c 2.68,0 6.71,2.68 9.39,6.72 2.69,2.68 2.69,5.36 0,12.07 -2.68,6.72 0,10.75 2.69,13.43 4.03,6.71 10.74,8.06 17.45,10.74 l 10.74,-2.68 c 6.72,-1.35 12.09,-1.35 13.43,0 5.37,2.68 6.71,9.4 5.37,20.14 -2.68,12.08 -9.4,16.1 -20.14,16.1 h -2.68 -6.72 -4.03 l -5.36,-4.02 -17.46,-2.69 c -10.74,-2.68 -16.11,-6.71 -17.45,-16.11 l -6.71,-17.45 v -17.46 c 0,-2.68 1.34,-5.36 4.02,-6.71 z M 161.867,1011.07 h -25.504 z m 1048.533,-53.707 13.42,2.688 c 5.38,1.344 6.72,1.344 6.72,4.031 l 5.37,16.109 c -2.69,6.711 -9.4,8.055 -16.11,6.711 h -4.03 -2.69 c -6.71,-2.683 -13.42,-6.711 -16.11,-13.425 -4.02,-6.711 -4.02,-13.426 2.69,-18.797 h 4.03 l 5.37,2.683 z m -303.416,30.883 c -12.086,-1.344 -16.113,-6.715 -13.425,-14.769 1.339,-2.684 4.027,-5.372 8.054,-5.372 l 12.082,2.688 1.344,2.684 -1.344,6.714 1.344,4.028 -1.344,2.683 z m 100.686,5.367 c 1.35,-5.367 4.03,-6.711 6.72,-6.711 l 13.42,-6.711 h 17.46 6.71 l 4.03,4.028 -1.35,6.711 c 0,4.027 -2.68,6.711 -5.37,6.711 l -20.14,2.689 c -8.05,-2.689 -14.76,-2.689 -20.13,0 -4.03,0 -4.03,-2.689 -1.35,-6.717 z m -80.549,6.717 8.055,-6.717 2.687,-2.683 4.028,-2.684 c 2.683,-4.027 9.394,-4.027 18.797,-1.344 6.71,1.344 8.05,4.028 4.027,10.739 -2.688,4.029 -9.399,6.719 -16.113,6.719 l -24.164,2.68 h 2.683 c 1.344,-2.68 1.344,-5.37 0,-6.71 z m -341.004,44.3 -6.715,-6.71 c -1.343,-6.71 0,-13.43 6.715,-20.14 l 13.422,-13.42 16.109,-9.403 c 2.688,-4.027 9.403,-6.711 16.114,-8.055 6.715,-2.683 6.715,6.711 4.027,21.478 0,2.69 -4.027,9.4 -13.426,20.14 l -6.715,5.37 -17.449,8.06 z m -67.129,30.88 -1.343,-6.71 v -6.71 c 10.742,-1.35 21.48,-4.03 28.195,-1.35 6.711,1.35 9.394,6.71 6.711,14.77 6.711,2.69 6.711,5.37 2.683,9.4 -4.027,2.68 -9.394,4.02 -16.109,4.02 -4.027,-1.34 -10.738,-6.71 -20.137,-13.42 z m 83.239,9.4 c 0,-2.69 0,-4.03 -2.688,-4.03 v -5.37 c -1.34,-6.71 -1.34,-8.06 0,-10.74 6.715,-4.03 22.824,-10.74 42.965,-20.14 2.684,0 2.684,2.69 2.684,6.71 v 13.43 c 1.339,10.74 0,17.45 -2.684,22.82 -2.688,1.34 -6.715,4.03 -13.43,4.03 -2.683,0 -4.023,-2.69 -10.738,-4.03 -6.715,-2.68 -12.082,-5.37 -16.109,-2.68 z m 463.173,29.54 c 2.69,1.34 2.69,4.02 0,4.02 l -4.02,9.4 -6.72,8.06 -12.08,2.68 -10.74,-9.4 c -4.03,-6.71 -9.4,-8.05 -10.74,-10.74 0,-6.71 6.71,-10.74 20.14,-16.11 l 4.03,-4.02 c 0,-2.69 2.68,-4.03 4.02,-4.03 l 9.4,-2.69 9.4,2.69 c 1.34,0 4.03,1.34 4.03,6.71 l -6.72,8.05 z m 87.27,21.48 -9.4,2.68 c -13.42,0 -17.45,-4.03 -13.42,-10.74 l 6.71,-6.71 9.4,-5.37 10.74,-10.74 6.71,-4.03 2.69,1.34 h 2.68 l -6.71,12.09 -5.37,10.73 c 0,6.72 -1.34,9.4 -4.03,10.75 z m -718.264,33.56 -4.027,-6.72 v -8.05 c 10.738,-12.08 20.141,-18.79 26.851,-20.14 l 13.426,1.35 14.766,2.68 13.426,2.69 h 9.402 c 4.023,0 6.711,0 4.023,1.34 l -10.742,12.08 -6.711,4.03 -6.711,6.71 c -10.742,4.03 -26.851,6.72 -42.964,6.72 h -6.711 z m 53.703,159.76 c -6.714,0 -10.742,0 -13.425,-2.68 0,-6.71 2.683,-10.75 6.711,-13.43 2.687,-2.68 6.714,-2.68 13.425,-4.03 l 6.711,-5.36 c 2.688,-1.35 4.032,-4.04 6.719,-4.04 h 6.711 6.711 6.715 c 2.683,-2.68 4.027,-2.68 4.027,0 v 4.04 l -4.027,6.71 -9.399,9.4 -1.343,4.02 -6.711,2.69 z m -37.589,51.02 -5.375,2.68 -14.766,-6.71 c -6.715,-5.37 -16.109,-6.71 -22.824,-6.71 -2.684,0 -4.028,-2.69 -4.028,-9.4 l 1.344,-17.45 c 2.684,-12.09 5.371,-18.8 6.715,-18.8 6.711,-1.34 13.422,5.37 25.508,20.14 l 8.051,12.08 5.375,4.03 4.027,2.69 h 4.027 l 2.684,1.34 v 5.37 l -9.399,6.71 z m 61.753,22.82 c -4.023,-6.71 -8.054,-9.39 -10.742,-12.08 l -6.711,-1.35 h -6.711 c -4.027,-2.68 -4.027,-5.36 -2.687,-6.71 5.371,-6.71 9.398,-9.4 13.426,-12.08 l 45.648,-1.34 c 6.711,1.34 13.426,4.02 21.481,6.71 l 20.14,8.06 c 18.793,6.71 36.246,6.71 53.699,5.36 l 13.426,-6.71 25.508,-16.11 c 4.027,-4.02 8.055,-6.71 13.426,-6.71 h 13.426 l -6.711,10.74 -2.688,13.43 c -2.683,16.11 -4.027,25.5 -4.027,32.22 l -2.688,1.34 -4.027,2.69 -12.082,4.02 -8.055,2.69 h -9.394 l -69.813,4.03 c -6.715,0 -10.742,0 -13.429,2.68 l -14.766,2.69 -12.082,-2.69 -10.742,-10.74 z m -57.726,48.34 c -2.688,2.68 -6.715,5.37 -13.43,5.37 l -9.394,-5.37 -4.032,-10.75 c 0,-2.68 2.688,-2.68 4.032,-2.68 2.683,2.68 5.371,0 5.371,-1.34 0,-6.72 1.34,-6.72 6.711,-5.37 4.027,2.68 6.715,5.37 8.054,9.39 2.688,6.71 5.371,9.4 2.688,10.75 z m 896.823,32.21 5.37,-5.37 4.03,6.72 c 2.68,2.68 0,6.71 -2.69,9.4 l -1.34,6.71 -5.37,6.71 -10.74,6.71 -9.4,-10.74 c -1.34,-5.37 -1.34,-9.39 2.68,-12.08 h 6.72 l 9.39,-1.34 z m -759.886,41.62 1.344,-4.03 c 5.371,-2.68 9.399,-4.02 13.426,-2.68 6.711,0 9.394,2.68 9.394,6.71 l 4.032,12.09 c 2.683,6.71 0,8.05 -6.715,8.05 -6.711,0 -8.055,-1.34 -10.738,-8.05 -2.688,-6.71 -6.715,-12.09 -10.743,-12.09 z m -123.511,25.51 v -5.37 l 4.027,-4.02 9.395,-2.69 c 2.687,-1.34 4.027,-4.03 6.714,-1.34 9.399,1.34 13.422,6.71 16.11,10.74 l -6.711,4.03 -9.399,2.68 -9.398,-2.68 c -1.344,-1.35 -6.711,-4.03 -10.738,-1.35 z m 277.902,28.19 -2.684,2.69 c -4.027,0 -9.394,-2.69 -10.738,-9.4 -2.687,-6.71 -9.398,-8.05 -16.109,-8.05 l -9.403,-5.37 c -1.339,-1.35 -6.711,-4.03 -10.738,-4.03 h -10.742 c -6.711,0 -9.395,-2.68 -6.711,-9.4 1.344,-1.34 4.027,-1.34 8.055,-1.34 l 5.371,-2.68 h 8.054 l 9.399,-6.72 c 4.031,-2.68 10.742,-2.68 17.453,2.69 l 16.109,8.05 c 6.715,5.37 13.426,9.4 16.114,13.43 l 1.34,5.37 c 2.687,1.34 5.371,4.03 2.687,6.71 l -6.715,4.03 c -2.683,2.68 -4.023,4.02 -9.398,4.02 z m -59.07,32.23 c 0,1.34 -4.028,4.02 -14.766,6.71 l -2.687,-2.69 c 2.687,-2.68 2.687,-2.68 2.687,-2.68 l -5.371,-6.71 c -1.344,-1.34 -4.027,-4.03 -10.738,-4.03 l -2.688,-4.03 6.715,-5.37 5.367,-4.03 c 1.344,-2.68 4.028,-2.68 4.028,0 l 4.027,2.69 h 6.715 l 2.683,4.03 2.684,2.68 c 1.344,6.72 1.344,10.74 1.344,13.43 z m -77.867,10.74 -9.399,-6.72 c -4.027,-2.68 -6.711,-6.71 -4.027,-13.42 v -2.69 h 4.027 l 2.688,-4.02 c 0,-2.69 0,-2.69 -2.688,-2.69 l -6.711,-1.34 c -1.344,-2.69 0,-5.37 2.684,-5.37 v 0 l 2.687,-4.03 h 13.422 c 6.715,0 8.059,2.69 8.059,4.03 0,2.68 -1.344,5.37 -4.032,6.71 -2.683,2.69 -2.683,5.37 0,6.71 l 9.403,5.38 c 6.711,1.34 10.738,4.02 10.738,6.71 2.688,1.34 0,6.71 -4.027,8.05 l -13.426,2.69 z m 863.262,-624.289 2.68,-13.422 h 2.69 l 4.02,2.683 9.4,4.028 c 4.03,2.683 6.71,2.683 6.71,4.027 0,2.684 -2.68,6.713 -6.71,9.403 l -16.11,2.68 c -2.68,0 -4.02,-2.68 -2.68,-9.399 z m -77.87,13.429 4.03,-6.71 c 2.68,-2.69 5.37,-2.69 6.71,-2.69 6.71,5.37 9.4,9.4 6.71,16.11 l -1.34,4.03 -6.71,2.68 c -6.71,-2.68 -12.09,-6.71 -9.4,-13.42 z m 167.82,13.42 c 2.68,-6.71 4.03,-9.4 9.39,-10.74 6.72,-2.68 10.75,0 14.77,1.34 6.71,2.69 6.71,6.72 5.37,13.43 l -9.39,6.71 c -2.69,0 -6.72,-1.34 -10.75,-4.02 z m -89.95,6.72 c -1.34,-6.72 -4.03,-10.74 -1.34,-13.43 l 8.05,9.4 13.43,10.74 c 2.68,2.69 0,4.03 -1.35,6.71 l -6.71,4.03 c -2.69,0 -5.37,-1.34 -6.71,-6.71 z m 116.8,71.15 2.68,-8.05 c 0,-5.38 1.34,-6.72 4.03,-5.38 l 9.4,5.38 c 1.34,1.34 4.03,4.03 4.03,8.05 0,6.71 -4.03,9.4 -10.75,6.71 l -5.37,-1.34 z M 266.59,1122.5 c -6.715,0 -9.399,-1.34 -10.742,-4.03 l -5.371,-6.71 2.687,-6.71 9.399,-2.69 8.054,2.69 9.399,-4.03 c 2.683,0 4.027,0 4.027,1.34 l 2.684,5.37 4.027,4.03 c 2.684,2.69 0,4.03 -1.344,9.4 l -9.394,4.02 z m 1204.27,16.11 c 0,-2.68 4.02,-2.68 13.42,-4.03 0,6.72 -5.37,8.06 -12.08,10.74 l -1.34,-2.68 z m 134.25,22.82 1.34,-5.37 c 2.69,-1.34 2.69,-4.02 5.37,-1.34 l 10.74,4.03 c 2.69,2.68 2.69,4.02 -4.02,6.71 z m 68.47,0 2.69,-6.71 4.02,-5.37 2.69,-4.03 6.71,-4.02 c 2.69,0 2.69,1.34 4.03,6.71 v 8.05 2.69 c 0,2.68 0,4.02 -1.34,4.02 -6.72,-1.34 -12.09,0 -13.43,5.37 z m -1478.146,24.17 -6.711,2.69 c -2.688,0 -5.371,-2.69 -2.688,-5.38 l 2.688,-6.71 c 1.34,-1.34 6.711,0 13.422,5.37 v 1.34 l -2.684,2.69 z m 67.129,17.45 -12.086,5.37 c 6.714,-16.11 12.086,-25.51 13.429,-29.53 h 5.367 4.028 c 6.715,-2.69 10.742,0 9.398,2.68 v 4.03 6.71 l -2.683,6.71 -4.032,4.03 z m 1396.247,26.86 -9.4,-10.75 -10.74,-13.42 -6.71,-4.03 c -2.69,0 -5.37,-2.69 -5.37,-5.37 l 9.4,-6.71 2.68,-6.72 6.71,-1.34 c 4.03,0 6.72,0 8.06,1.34 9.4,9.4 13.42,18.8 13.42,26.86 l -1.34,6.71 1.34,2.68 v 4.03 h -1.34 l -2.68,6.72 z m -1321.064,9.39 h -4.031 l -4.027,-4.03 v -18.79 c 1.343,-1.34 1.343,-4.03 4.027,-1.34 13.426,6.71 20.14,13.42 22.824,14.77 l 6.711,5.36 c 1.344,1.35 4.027,4.03 6.715,6.71 l -2.688,1.35 c -2.683,2.69 -4.027,5.37 -6.711,5.37 v 0 h -2.683 l -13.426,-5.37 z m -93.98,13.43 h -10.743 l -6.71,-6.71 2.683,-2.69 1.344,-4.03 2.683,-6.71 4.028,-2.68 9.398,9.39 c 2.688,2.68 4.028,6.72 2.688,10.74 v 2.69 z m 1298.244,13.42 c -2.69,-2.68 -4.03,-4.02 -9.4,-4.02 v -5.38 l 2.68,-6.71 -2.68,-4.02 2.68,-6.72 c 4.03,0 6.72,2.68 9.41,4.03 l 4.02,6.71 c 2.69,2.69 2.69,6.71 0,12.09 v 4.02 l -2.68,2.69 z m 46.99,49.67 c -2.69,-2.68 0,-6.71 6.71,-13.42 0,0 0,-2.69 -2.69,-5.37 l -1.34,-4.03 c 0,-2.68 -2.68,-4.02 -6.71,-9.39 -5.37,-6.72 -5.37,-10.75 -2.68,-14.77 4.02,-6.71 9.39,-12.09 16.1,-12.09 -2.68,6.72 0,12.09 1.35,13.43 l 12.08,9.4 c 1.34,0 0,2.68 -2.68,9.4 0,4.02 2.68,6.71 6.71,4.02 l 16.11,-9.39 h 4.03 v 2.68 l -2.69,4.03 -4.03,2.68 v 2.69 h -2.68 l -1.34,4.02 h -2.69 c 0,0 -2.68,2.69 -9.4,6.72 -1.34,4.03 -6.71,6.71 -10.73,6.71 -6.72,0 -10.75,0 -13.43,2.68 z m -1331.809,1.35 c 2.684,0 2.684,-1.35 2.684,-4.03 l -2.684,-9.39 5.372,-4.04 8.054,-4.02 -1.344,13.42 -5.367,6.71 v 4.04 c 2.684,2.68 0,4.02 -1.343,4.02 h -5.372 l -4.027,-1.34 c -2.687,-2.68 0,-5.37 4.027,-5.37 z m 29.536,32.22 6.711,-2.68 h 13.425 c 2.688,0 2.688,2.68 2.688,4.02 -2.688,-1.34 -2.688,0 -2.688,2.69 l -4.023,2.68 -9.402,-2.68 c -4.028,0 -6.711,-2.69 -6.711,-4.03 z m 1278.103,14.77 c -2.68,-1.34 1.35,-4.03 8.06,-10.74 l 9.4,-4.03 9.39,-2.68 c 4.03,-4.03 10.75,-6.72 17.46,-4.03 h 2.68 l 1.34,1.34 c 2.69,6.71 -1.34,9.4 -13.42,12.08 h -6.72 l -4.02,1.35 -2.69,6.71 -8.05,2.68 z m -1327.779,2.68 c -4.028,-4.02 -6.711,-10.74 -4.028,-17.45 9.399,1.34 13.426,4.03 13.426,6.71 2.688,4.03 0,8.06 -4.027,10.74 v 0 z m 36.25,42.96 -4.028,-2.68 c 1.344,-2.69 1.344,-4.03 0,-6.71 l -5.367,-9.4 2.684,-4.03 2.683,-2.68 4.028,13.42 4.027,5.37 2.688,6.71 z m 1125.059,0 c -4.03,-2.68 -6.72,-5.37 -4.03,-6.71 2.69,-2.68 6.71,-5.37 13.42,-5.37 6.72,-1.34 10.74,0 13.43,2.69 l 6.71,4.02 c 2.69,2.69 2.69,6.72 2.69,12.09 l -6.72,1.34 c -2.68,0 -6.71,-1.34 -12.08,-4.03 z m 146.34,33.57 -18.8,1.34 c -1.34,2.68 -1.34,0 -4.03,-4.03 l -2.69,-6.71 6.72,-2.68 h 2.68 l 4.03,-4.03 5.37,-9.4 6.72,-8.06 c 1.34,-9.39 6.71,-12.08 13.42,-6.71 1.34,1.34 1.34,4.03 1.34,8.06 0,5.37 -1.34,6.71 -4.03,9.4 l -9.39,4.02 c -4.03,2.69 -6.72,6.72 -6.72,13.43 l 5.38,2.68 z m -72.5,26.85 -6.72,-2.68 v -6.72 c 0,-4.02 0,-6.71 2.69,-4.02 h 6.71 l 9.4,-2.69 4.03,9.4 c 2.68,1.34 4.03,4.03 2.68,6.71 h -5.37 -8.05 z m -639.055,-268.51 -9.399,-9.4 -13.426,-4.02 c -2.683,0 -6.715,1.34 -10.742,4.02 -2.683,2.69 -6.711,4.03 -12.082,4.03 -14.766,2.68 -34.902,0 -55.043,-6.71 -2.687,-1.34 0,-4.03 6.711,-8.06 l 13.43,-12.08 13.422,-10.74 10.742,-6.71 c 4.027,-2.69 6.711,0 9.394,6.71 l 4.032,2.68 h 4.027 l 20.137,-22.82 c 2.683,-2.68 5.371,-4.03 2.683,-9.4 v -13.42 c 2.688,-10.74 0,-20.14 -2.683,-21.48 l -14.77,-20.14 -16.109,-42.96 -13.426,-46.991 -2.684,-46.992 -1.343,-22.821 c -2.684,-8.054 -2.684,-17.457 0,-24.168 1.343,-6.715 1.343,-13.425 0,-24.164 l -2.684,-26.851 v -25.508 l -2.687,-26.852 c 2.687,2.684 5.371,5.371 6.714,6.715 l 6.711,20.137 2.688,12.082 6.711,10.738 4.027,-2.683 h 2.688 v -20.137 c -2.688,-10.742 -2.688,-17.453 0,-20.137 l 6.711,16.106 6.71,16.113 6.715,14.766 2.684,5.371 v 4.031 c 1.344,0 1.344,2.683 1.344,4.027 l 2.683,2.684 4.028,-9.399 5.375,-33.562 c 1.339,-8.059 4.027,-14.77 6.711,-20.137 0,-1.344 1.339,-8.058 4.027,-17.453 l 6.711,-17.457 46.988,1.344 24.168,-1.344 12.082,1.344 10.742,-1.344 17.453,-2.684 h 60.414 l 9.4,-2.687 h 26.85 l 10.74,5.371 c 5.37,1.344 6.71,4.027 6.71,6.715 2.69,6.711 2.69,20.137 2.69,34.906 l -2.69,40.274 c 2.69,16.113 0,33.566 -1.34,49.675 l -2.69,22.825 c -2.68,10.742 -6.71,17.453 -9.39,20.136 -24.17,-2.683 -46.99,1.344 -64.447,8.055 l -13.422,9.398 -4.032,6.711 -9.394,2.688 H 958 c -2.684,0 -4.027,0 -4.027,1.344 l -5.371,-1.344 v -2.688 c -1.34,-4.023 -4.028,-6.711 -10.739,-6.711 l -13.425,-2.683 h -6.715 l -17.453,5.371 -12.082,1.34 -8.055,-4.028 -16.11,-2.683 -20.14,-4.028 h -9.399 c -10.738,2.684 -17.453,6.711 -20.136,10.739 -4.028,5.371 -4.028,13.425 -1.344,25.511 v 4.028 l 1.344,9.394 5.371,13.427 24.164,21.48 13.426,5.37 c 6.714,1.34 9.398,1.34 10.742,4.03 l 9.394,13.42 10.743,10.75 h 9.398 l 9.398,5.36 c 1.344,1.35 1.344,4.03 1.344,8.06 v 16.11 c 2.684,9.4 9.395,16.11 18.793,17.45 l 24.164,-1.34 h 13.43 c 6.711,0 9.394,0 10.738,-2.68 l 9.399,-9.4 c 4.027,-1.34 6.711,-4.03 9.398,-8.06 1.344,-9.39 10.74,-13.42 24.16,-13.42 2.69,0 2.69,1.34 2.69,4.03 l -5.37,6.71 -14.77,24.16 -6.71,6.72 c -2.687,2.68 -5.371,5.37 -6.715,6.71 l -5.367,5.37 -1.344,4.03 v 6.71 c -2.683,2.69 -5.371,4.03 -9.398,2.69 l -6.711,-2.69 -10.742,-2.68 c -12.082,2.68 -20.141,5.37 -22.825,12.08 -6.71,14.76 -16.109,28.19 -26.847,44.3 l -16.113,10.74 -6.711,5.37 -8.059,6.72 h -6.711 c -9.398,-2.69 -20.137,-6.72 -33.562,-13.43 z m -22.825,-146.34 -4.027,-10.74 c -2.688,-6.71 0,-9.4 1.344,-10.74 2.683,-2.68 5.367,0 9.394,1.34 l 6.715,6.72 22.824,16.11 c 13.422,6.71 21.481,10.74 24.164,13.42 6.711,6.72 10.743,13.43 13.426,20.14 l 4.028,16.11 c 0,6.72 -1.34,13.43 -8.055,14.77 -2.688,2.68 -9.399,2.68 -16.11,5.37 h -4.031 -6.711 l -5.367,1.34 h -4.031 l -2.684,-1.34 v -6.71 l -1.344,-12.09 c -2.683,-10.73 -2.683,-14.76 -5.371,-17.45 l -13.425,-17.45 -10.739,-18.8"
         style="fill:#ffffff;fill-opacity:1;fill-rule:evenodd;stroke:none"
         id="path14" />
      <path
         d="m 423.664,457.938 -6.711,-61.758 -12.082,-127.539 20.137,1.339 h 20.137 l 5.375,25.508 6.71,80.555 8.055,91.293 v 16.109 c 22.824,1.344 38.934,0 49.676,-5.367 10.742,-6.715 16.109,-14.769 13.426,-28.195 -2.684,-6.715 -4.028,-13.426 -10.742,-18.797 l -20.137,-13.422 -13.426,-6.715 c -6.715,-1.344 -9.398,-4.027 -12.082,-6.715 l 52.359,-73.839 46.989,-61.754 6.711,-9.403 c 6.714,2.688 13.425,6.715 20.14,13.43 l 14.766,13.426 -21.481,29.531 -40.277,51.02 -18.793,29.535 13.426,8.054 c 9.394,6.715 16.109,18.797 22.82,29.539 6.715,16.11 6.715,33.563 0,49.672 -2.683,10.743 -9.398,17.453 -16.109,21.481 l -26.848,13.426 -57.73,5.371 h -40.282 l -4.027,-65.785"
         style="fill:#ffffff;fill-opacity:1;fill-rule:evenodd;stroke:none"
         id="path16" />
      <path
         d="m 709.629,521.035 v -63.097 l -2.688,-182.586 v -6.711 l 42.965,1.339 v 123.516 l 2.688,64.442 -2.688,33.566 v 29.531 h -40.277"
         style="fill:#ffffff;fill-opacity:1;fill-rule:evenodd;stroke:none"
         id="path18" />
      <path
         d="m 1264.1,518.352 h -37.59 l -2.69,-155.735 v -63.101 c -1.34,-4.028 -1.34,-16.11 0,-30.875 l 38.94,1.339 1.34,56.387 v 191.985"
         style="fill:#ffffff;fill-opacity:1;fill-rule:evenodd;stroke:none"
         id="path20" />
      <path
         d="m 866.707,369.328 c 1.344,-12.082 1.344,-20.137 4.027,-25.508 l 9.399,-20.136 c 8.055,-14.77 20.137,-28.196 34.906,-40.278 13.426,-6.715 29.535,-13.426 46.988,-17.453 l 18.797,-4.027 h 20.136 l 60.42,6.715 17.45,4.027 c 6.71,2.684 13.43,4.023 16.11,6.711 v 107.402 h -20.14 -20.14 l -2.68,-77.867 c -10.74,-5.367 -24.17,-6.711 -44.31,-6.711 -20.135,0 -38.932,1.344 -52.354,8.055 -10.742,6.711 -20.14,13.426 -26.851,20.137 -6.711,9.398 -13.426,20.14 -17.453,33.566 l -4.028,33.562 8.055,33.563 c 6.715,12.082 13.426,22.824 25.508,29.539 10.738,6.711 21.48,13.426 30.879,16.109 l 69.814,1.344 c 10.74,-1.344 20.14,-4.027 24.16,-6.715 l 6.72,20.141 6.71,20.137 -16.11,5.371 -51.02,6.711 c -37.591,0 -67.126,-6.711 -87.262,-22.825 -16.11,-10.738 -26.852,-22.82 -36.25,-33.562 -6.711,-10.738 -13.426,-22.824 -17.454,-33.563 -6.711,-20.14 -9.398,-42.964 -4.027,-64.445"
         style="fill:#ffffff;fill-opacity:1;fill-rule:evenodd;stroke:none"
         id="path22" />
      <path
         d="m 202.145,525.066 -40.278,5.372 -29.531,-5.372 C 116.223,521.035 102.797,517.012 96.0859,510.297 81.3164,498.215 69.2344,490.16 62.5195,480.762 L 42.3828,449.883 C 34.3281,429.742 28.957,409.605 31.6406,390.809 c 0,-10.739 0,-17.454 2.6875,-21.481 l 4.0274,-22.82 9.3984,-20.141 13.4258,-17.453 30.8789,-26.851 c 16.1094,-9.395 26.8474,-16.11 37.5894,-18.793 22.825,-4.032 42.961,-4.032 63.102,-1.344 20.137,4.027 36.246,10.742 49.672,20.137 14.769,13.425 26.851,24.167 33.562,30.878 8.059,16.114 14.77,26.852 20.141,37.594 6.715,25.508 8.055,45.645 6.715,65.785 -5.371,20.137 -9.402,34.907 -16.113,46.989 -9.399,13.425 -16.11,21.48 -20.137,24.164 -6.715,6.715 -17.453,16.109 -29.539,24.168 l -17.453,6.711 -17.453,6.714 z m 55.046,-122.171 c 0,-20.141 -4.027,-38.934 -13.425,-53.704 -6.715,-12.082 -13.426,-20.136 -21.481,-26.851 -6.715,-6.715 -16.109,-12.082 -29.535,-16.11 l -30.883,-4.027 -22.82,1.344 -13.426,6.711 -16.109,9.398 -14.7698,16.11 -5.3711,6.714 -8.0547,17.454 -5.3672,20.136 c -1.3437,17.453 -1.3437,36.25 5.3672,51.016 6.7109,18.797 17.4531,32.223 33.5666,40.277 14.765,12.082 30.875,16.11 51.015,16.11 17.454,-2.684 36.247,-9.395 53.7,-20.137 9.398,-6.711 17.453,-16.109 26.851,-26.852 6.715,-10.742 9.399,-22.82 10.742,-37.589"
         style="fill:#ffffff;fill-opacity:1;fill-rule:evenodd;stroke:none"
         id="path24" />
      <path
         d="m 1425.21,530.438 c -1.35,-33.567 -6.72,-72.5 -10.74,-114.118 l -6.72,-56.386 -4.02,-29.539 -2.69,-26.848 -6.71,-34.906 h 44.3 c 2.69,14.765 5.37,33.562 6.71,57.726 l 12.09,103.375 1.34,6.715 c 6.71,-6.715 13.43,-13.426 20.14,-22.824 l 20.14,-17.453 18.79,-20.137 57.73,-63.102 73.84,-73.839 2.69,6.714 v 275.219 h -45.65 l 2.69,-131.566 c 0,-16.114 0,-26.852 -2.69,-33.567 V 343.82 c -10.74,12.082 -41.62,42.961 -88.61,92.637 l -40.27,40.277 -38.94,40.278 -4.02,6.711 -9.4,6.715"
         style="fill:#ffffff;fill-opacity:1;fill-rule:evenodd;stroke:none"
         id="path26" />
      <path
         d="m 1848.11,478.078 25.51,5.367 21.48,-2.683 6.71,40.273 -20.14,2.688 c -37.59,1.343 -67.12,-9.399 -87.26,-32.219 -10.75,-13.426 -14.77,-30.879 -13.43,-51.02 2.68,-10.742 9.4,-22.82 16.11,-30.879 l 24.17,-25.507 c 12.08,-10.743 18.79,-20.137 22.82,-26.852 4.03,-6.711 4.03,-14.766 2.69,-24.164 -2.69,-9.398 -6.72,-16.113 -13.43,-20.141 -9.4,-6.711 -18.79,-9.394 -26.85,-10.738 -6.71,-2.687 -13.42,-2.687 -25.51,0 l -17.45,1.344 -9.4,-40.277 59.07,-1.344 c 13.43,1.344 24.17,4.027 33.57,10.742 14.77,9.395 28.19,22.82 37.59,37.59 4.03,12.082 6.71,22.824 6.71,33.562 0,9.399 -2.68,18.797 -6.71,26.852 -4.03,6.715 -10.74,16.109 -20.14,26.851 l -22.83,22.825 c -8.05,9.394 -13.42,17.453 -14.76,24.164 l -2.69,9.398 4.03,10.738 c 5.37,6.715 12.08,12.086 20.14,13.43"
         style="fill:#ffffff;fill-opacity:1;fill-rule:evenodd;stroke:none"
         id="path28" />
    </g>
  </g>
</svg>
