<svg xmlns="http://www.w3.org/2000/svg" viewBox="0 0 105.63 72.06" width="320px" height="218px">
  <defs>
    <style>.cls-1{fill:none}</style>
  </defs>
  <g>
    <rect class="cls-1" x="0.01" y="0.03" width="105.62" height="72"/>
  </g>
  <path fill="#ffffff" d="M78.42,52.68c-1.09-3.39,2.85-9.52,11.9-8.16,0,0-3.22-4.21-13.49-3.39-11.42,1-21.11,9.37-30.19,13.81s-14.5,3-16.13-1.35,3-8.93,11.94-8.68c-5.58-5-14.26-4.36-20.89-2.24-6.17,2-12.62,5.74-21.56,9.75V72.06H105.63V53.12C84,60.19,79.5,56,78.42,52.68" transform="translate(0 0)"/>
  <path fill="#ffffff" d="M42.45,17.62c-8.93-.26-13.55,4.36-12,8.66s7.06,5.78,16.16,1.35S65.43,14.78,76.85,13.84C87.1,13,90.34,17.23,90.34,17.23c-9.08-1.38-13,4.76-11.9,8.15s5.59,7.53,27.15.36V0H0V25.12c8.94-4,15.37-7.76,21.53-9.76,6.67-2.13,15.34-2.72,20.91,2.26" transform="translate(0 0)"/>
</svg>