<svg version="1.1" id="Layer_1" xmlns="http://www.w3.org/2000/svg" xmlns:xlink="http://www.w3.org/1999/xlink" x="0px" y="0px"
	 width="100%" viewBox="0 0 1000 238" enable-background="new 0 0 1000 238" xml:space="preserve">
<path fill="#ffffff" opacity="1.000000" stroke="none" 
	d="
M107.750984,183.231430 
	C106.336754,180.979675 105.159477,179.009048 104.014244,177.019943 
	C100.587997,171.069016 98.475639,164.908478 98.887810,157.782501 
	C99.368195,149.477112 99.347038,141.100555 98.820793,132.800720 
	C98.622444,129.672440 97.200249,125.790977 94.965118,123.765900 
	C85.091721,114.820389 74.712013,106.434265 64.529106,97.829651 
	C54.333893,89.214638 44.124123,80.615761 34.062717,71.846893 
	C33.581924,71.427864 34.086185,68.740135 34.816784,68.330368 
	C35.978401,67.678848 37.717686,68.007927 39.212666,68.007401 
	C67.545540,67.997459 95.894409,68.556931 124.203949,67.744125 
	C136.689774,67.385635 147.025879,71.317192 157.084671,77.605225 
	C158.610748,78.559219 160.163300,79.478905 161.752472,80.322372 
	C166.195633,82.680626 167.426300,86.005951 165.118271,90.482140 
	C163.168686,94.263199 161.005951,97.946846 158.737183,101.547356 
	C156.431549,105.206367 153.339676,105.990898 149.418594,103.787895 
	C144.011566,100.750046 138.763550,96.394897 132.952072,95.344475 
	C123.325027,93.604370 113.303055,94.049171 103.447456,93.573471 
	C103.266144,94.030342 103.084824,94.487221 102.903511,94.944092 
	C103.819221,95.931808 104.641708,97.030922 105.666359,97.888474 
	C110.834900,102.214035 116.410065,106.129707 121.101471,110.915649 
	C123.271103,113.129005 124.705803,116.960205 124.828133,120.121590 
	C125.266006,131.437805 124.931572,142.781967 125.047066,154.113937 
	C125.076683,157.019958 125.686020,159.920074 126.192787,164.208862 
	C128.135727,162.395538 129.489273,161.603348 130.175095,160.423157 
	C146.482071,132.361572 162.702225,104.249550 178.972748,76.166740 
	C185.874023,64.255219 192.848236,52.385944 199.800797,40.504185 
	C201.909714,36.900093 204.709579,36.816154 206.763672,40.362316 
	C219.904434,63.048481 232.984039,85.770088 246.143311,108.445488 
	C259.307343,131.129105 272.560394,153.761078 285.698273,176.459763 
	C286.534821,177.905090 286.713867,179.730957 286.238220,182.260941 
	C279.044800,178.222687 271.813446,174.250336 264.665680,170.132828 
	C248.474472,160.805740 232.324005,151.407867 216.157867,142.037277 
	C208.076584,137.353012 200.001740,132.657623 191.914917,127.982941 
	C188.240356,125.858818 188.217010,122.859886 189.990799,119.572639 
	C191.780563,116.255844 193.804382,113.066162 195.635117,109.770493 
	C198.504089,104.605865 201.391998,103.597778 206.566772,106.272560 
	C209.174942,107.620697 211.653229,109.220108 214.190247,110.705887 
	C214.639618,110.439903 215.088974,110.173912 215.538345,109.907921 
	C214.262573,107.047134 213.139725,104.105019 211.672424,101.346092 
	C209.826874,97.875992 207.682266,94.565826 205.699158,91.167709 
	C204.039276,88.323418 202.664764,88.135780 200.896378,91.227249 
	C196.418732,99.054909 191.702911,106.745850 187.163239,114.538582 
	C178.007812,130.254654 168.873520,145.983231 159.791031,161.741531 
	C150.461517,177.928452 141.152863,194.127884 131.946243,210.384796 
	C129.141907,215.336670 126.982613,215.626999 123.949829,210.638489 
	C118.500420,201.674942 113.304443,192.557343 107.750984,183.231430 
z"/>
<path fill="#ffffff" opacity="1.000000" stroke="none" 
	d="
M603.000000,143.998718 
	C603.000000,150.127151 603.000000,155.755997 603.000000,161.688782 
	C595.309326,161.688782 588.054260,161.688782 580.173279,161.688782 
	C580.173279,150.702560 580.173279,139.655182 580.173279,128.308838 
	C571.304443,128.308838 563.049561,128.308838 554.169373,128.308838 
	C554.169373,139.301468 554.169373,150.348831 554.169373,161.693100 
	C546.300171,161.693100 539.045288,161.693100 531.393250,161.693100 
	C531.393250,134.354630 531.393250,106.989006 531.393250,79.311691 
	C538.690002,79.311691 545.944946,79.311691 553.826355,79.311691 
	C553.826355,88.961800 553.826355,98.678719 553.826355,108.691254 
	C562.695740,108.691254 570.950623,108.691254 579.831360,108.691254 
	C579.831360,99.033005 579.831360,89.316101 579.831360,79.306213 
	C587.701172,79.306213 594.956055,79.306213 603.000000,79.306213 
	C603.000000,100.680794 603.000000,122.089958 603.000000,143.998718 
z"/>
<path fill="#ffffff" opacity="1.000000" stroke="none" 
	d="
M379.000000,92.013435 
	C379.000000,87.550453 379.000000,83.585083 379.000000,79.315201 
	C400.350311,79.315201 421.268463,79.315201 442.593994,79.315201 
	C442.593994,85.615540 442.593994,91.988937 442.593994,98.817200 
	C429.318787,98.817200 416.061066,98.817200 402.404358,98.817200 
	C402.404358,102.625130 402.404358,105.996048 402.404358,109.818771 
	C414.676453,109.818771 426.938110,109.818771 439.597046,109.818771 
	C439.597046,116.288475 439.597046,122.329201 439.597046,128.822998 
	C427.311798,128.822998 415.053314,128.822998 402.399963,128.822998 
	C402.399963,133.299225 402.399963,137.337952 402.399963,141.827850 
	C416.024506,141.827850 429.617371,141.827850 443.602417,141.827850 
	C443.602417,148.633026 443.602417,155.007050 443.602417,161.693695 
	C422.298523,161.693695 401.047241,161.693695 379.000000,161.693695 
	C379.000000,138.661911 379.000000,115.586479 379.000000,92.013435 
z"/>
<path fill="#ffffff" opacity="1.000000" stroke="none" 
	d="
M842.569580,158.746155 
	C826.458374,165.874481 810.752991,166.772324 795.732910,157.220169 
	C786.357971,151.258011 782.665894,144.034012 784.328735,131.380539 
	C791.324097,131.380539 798.379700,131.380539 805.432922,131.380539 
	C807.579956,143.489243 820.190125,149.354874 829.778198,142.743759 
	C834.101440,139.762833 834.174011,135.819366 829.355957,133.904144 
	C822.413452,131.144409 815.148743,129.174789 807.976074,127.019226 
	C797.213928,123.784920 788.346130,118.885788 786.545776,106.232971 
	C785.133972,96.310394 789.173157,88.892082 796.523621,83.102882 
	C808.162292,73.936356 833.907471,74.844833 844.562744,85.018814 
	C850.788757,90.963654 853.240723,97.970146 851.582642,106.707985 
	C844.469971,106.707985 837.404419,106.707985 830.367004,106.707985 
	C829.329651,97.338013 821.339661,92.789772 812.856750,96.783165 
	C811.227905,97.549957 809.347290,99.715553 809.281982,101.305664 
	C809.221191,102.783989 811.144714,105.244057 812.684692,105.735229 
	C820.137207,108.112167 827.795166,109.834465 835.303894,112.048096 
	C844.794800,114.846115 852.378296,120.398499 854.523010,130.358276 
	C856.504272,139.558884 854.611694,148.449707 847.196106,155.269836 
	C845.873535,156.486130 844.336853,157.469513 842.569580,158.746155 
z"/>
<path fill="#ffffff" opacity="1.000000" stroke="none" 
	d="
M472.973877,134.871338 
	C475.261139,141.625473 484.940399,145.080582 490.440399,143.876114 
	C496.347107,142.582581 501.129120,140.521851 503.329712,127.277306 
	C510.372223,127.277306 517.453613,127.277306 524.492065,127.277306 
	C526.643066,141.465836 515.580139,159.199234 498.169067,162.970200 
	C490.317627,164.670685 482.561615,164.356384 474.782318,162.081818 
	C460.052917,157.775146 451.826080,147.263504 448.317627,133.195938 
	C445.222900,120.787331 446.411591,108.414497 452.600891,96.768814 
	C458.711334,85.271507 468.580933,78.886803 480.944366,77.221008 
	C492.355133,75.683563 503.625031,77.036606 513.145569,84.980049 
	C518.986511,89.853455 522.226746,96.065407 523.960144,103.238098 
	C524.452332,105.274963 524.574097,107.401375 524.935974,109.989174 
	C518.232422,109.989174 511.756989,110.123421 505.297546,109.862411 
	C504.167450,109.816742 502.508057,108.310646 502.112305,107.135742 
	C500.267853,101.659897 496.692596,97.949669 491.091125,97.128189 
	C484.605682,96.177078 478.065826,97.240082 474.435150,103.364792 
	C468.548889,113.294495 468.072418,123.853889 472.973877,134.871338 
z"/>
<path fill="#ffffff" opacity="1.000000" stroke="none" 
	d="
M705.166626,161.014648 
	C709.570251,148.748978 713.852112,136.437851 718.408691,124.229233 
	C724.002197,109.242355 729.825317,94.341156 735.700500,79.008102 
	C742.089600,79.008102 748.734314,78.875168 755.364136,79.129578 
	C756.569641,79.175850 758.352661,80.566017 758.793274,81.739662 
	C768.435974,107.424789 777.928589,133.166260 787.434753,158.902557 
	C787.707825,159.641846 787.814453,160.442642 788.099243,161.636169 
	C780.061707,161.636169 772.350830,161.636169 764.479309,161.636169 
	C764.109741,160.710464 763.666931,159.682648 763.285706,158.632477 
	C761.674988,154.194519 761.306580,147.977783 758.146667,145.795120 
	C754.840515,143.511429 748.858215,145.034256 744.045105,145.013947 
	C733.408630,144.969070 733.416687,145.002670 730.010986,155.328674 
	C729.453064,157.020187 728.786682,158.675888 727.858643,160.815277 
	C727.360229,161.457138 727.182678,161.640778 727.014343,161.833344 
	C720.311279,161.877014 713.608154,161.920685 706.311401,161.755692 
	C705.543030,161.360336 705.359314,161.182861 705.166626,161.014648 
M743.841125,125.995537 
	C746.442932,125.995537 749.044739,125.995537 752.170288,125.995537 
	C750.431213,120.895836 748.899719,116.404739 747.368164,111.913651 
	C746.771118,111.827293 746.174011,111.740944 745.576965,111.654594 
	C744.131775,116.207130 742.681396,120.758110 741.314575,125.334061 
	C741.300720,125.380646 742.390503,125.756905 743.841125,125.995537 
z"/>
<path fill="#ffffff" opacity="1.000000" stroke="none" 
	d="
M884.958008,156.884995 
	C888.338196,147.172684 891.517212,137.384506 895.144592,127.765427 
	C900.917358,112.457695 906.924194,97.236572 913.045776,82.065048 
	C913.588562,80.719810 915.651428,79.235474 917.095154,79.140808 
	C922.405029,78.792641 927.761719,78.824425 933.077271,79.126511 
	C934.437683,79.203827 936.449890,80.518196 936.916626,81.740173 
	C946.370483,106.490898 955.652893,131.307190 964.928833,156.125595 
	C965.596924,157.912994 965.951599,159.817490 966.540161,161.993500 
	C959.294800,161.993500 952.464844,162.143280 945.652954,161.859909 
	C944.378174,161.806870 943.159851,160.038147 941.953857,159.015976 
	C941.731384,158.827438 941.687866,158.423447 941.571045,158.115433 
	C939.957031,153.860840 939.496704,147.910339 936.415283,145.816223 
	C933.181396,143.618423 927.435913,145.037186 922.787354,145.015976 
	C911.857361,144.966095 911.415405,144.878052 908.540283,155.295197 
	C906.993591,160.898972 904.462830,162.710495 898.916504,162.101288 
	C894.304749,161.594727 889.595520,161.976212 884.513550,161.542358 
	C884.384460,159.708588 884.671204,158.296799 884.958008,156.884995 
M924.458130,112.070709 
	C922.522339,116.492134 920.586487,120.913559 918.485596,125.712051 
	C922.491028,125.712051 925.559143,125.712051 930.140137,125.712051 
	C928.329834,120.701233 926.786804,116.430244 924.458130,112.070709 
z"/>
<path fill="#ffffff" opacity="1.000000" stroke="none" 
	d="
M334.000000,79.000000 
	C348.125610,79.000000 361.751251,79.000000 375.686157,79.000000 
	C375.686157,85.686714 375.686157,91.941078 375.686157,98.824219 
	C368.377747,98.824219 360.989502,98.824219 353.177216,98.824219 
	C353.177216,120.026619 353.177216,140.613983 353.177216,161.598907 
	C345.374176,161.598907 338.000488,161.598907 330.179901,161.598907 
	C330.179901,140.976074 330.179901,120.388710 330.179901,99.181396 
	C322.049072,99.181396 314.328369,99.181396 306.312073,99.181396 
	C306.312073,92.309586 306.312073,86.055244 306.312073,79.000000 
	C315.331482,79.000000 324.415741,79.000000 334.000000,79.000000 
z"/>
<path fill="#ffffff" opacity="1.000000" stroke="none" 
	d="
M693.000000,112.000000 
	C693.000000,101.540787 693.000000,91.581573 693.000000,81.314743 
	C696.008667,81.314743 698.604858,81.314743 701.602173,81.314743 
	C701.602173,107.251678 701.602173,133.288162 701.607788,159.325653 
	C693.514465,161.084198 693.112793,160.802643 688.767212,154.502274 
	C676.492676,136.706161 664.093201,118.996246 651.808350,101.207169 
	C651.102905,100.185562 650.981201,98.760895 650.587769,97.523819 
	C649.784424,98.068123 648.981079,98.612427 648.177734,99.156731 
	C648.177734,119.284424 648.177734,139.412125 648.177734,159.762482 
	C644.842224,159.762482 642.250732,159.762482 639.328918,159.762482 
	C639.328918,133.591446 639.328918,107.555313 639.328918,81.433853 
	C644.956238,80.352615 648.854004,80.862129 652.533081,86.550507 
	C664.620300,105.239525 677.622070,123.337303 690.307800,141.637756 
	C690.710144,142.218185 691.498047,142.531372 693.000000,143.612534 
	C693.000000,132.621170 693.000000,122.560585 693.000000,112.000000 
z"/>
<path fill="#ffffff" opacity="1.000000" stroke="none" 
	d="
M884.604858,156.937988 
	C884.671204,158.296799 884.384460,159.708588 884.049011,161.476868 
	C876.208313,161.833344 868.416321,161.833344 860.314453,161.833344 
	C860.314453,134.315598 860.314453,107.065674 860.314453,79.407303 
	C867.279846,79.407303 874.320068,79.407303 881.999939,79.407303 
	C881.999939,81.196526 882.000000,82.968323 882.000000,84.740120 
	C882.000061,107.565804 881.966064,130.391678 882.089172,153.216690 
	C882.096191,154.511078 880.275757,157.657532 884.604858,156.937988 
z"/>
<path fill="#ffffff" opacity="1.000000" stroke="none" 
	d="
M623.516479,159.436050 
	C621.062378,159.785721 618.913147,159.785721 616.382080,159.785721 
	C616.382080,133.768753 616.382080,107.761246 616.382080,81.377213 
	C618.674561,81.377213 621.042358,81.377213 623.821228,81.377213 
	C623.821228,107.324814 623.821228,133.205597 623.516479,159.436050 
z"/>
<path fill="#ffffff" opacity="1.000000" stroke="none" 
	d="
M705.153198,161.259064 
	C705.359314,161.182861 705.543030,161.360336 705.845215,161.690186 
	C705.972595,161.833344 705.483398,161.852112 705.483398,161.852112 
	C705.483398,161.852112 705.139709,161.503479 705.153198,161.259064 
z"/>
<path fill="#ffffff" opacity="1.000000" stroke="none" 
	d="
M727.258789,161.846893 
	C727.182678,161.640778 727.360229,161.457138 727.690186,161.155075 
	C727.968201,161.402390 727.858093,161.679977 727.258789,161.846893 
z"/>
</svg>